%TF.GenerationSoftware,KiCad,Pcbnew,10.0.5*%
%TF.CreationDate,2026-08-12T19:48:20+09:00*%
%TF.ProjectId,N64Power,4e363450-6f77-4657-922e-6b696361645f,rev?*%
%TF.SameCoordinates,Original*%
%TF.FileFunction,Copper,L2,Bot*%
%TF.FilePolarity,Positive*%
%FSLAX46Y46*%
G04 Gerber Fmt 4.6, Leading zero omitted, Abs format (unit mm)*
G04 Created by KiCad (PCBNEW 10.0.5) date 2026-08-12 19:48:20*
%MOMM*%
%LPD*%
G01*
G04 APERTURE LIST*
G04 Aperture macros list*
%AMRoundRect*
0 Rectangle with rounded corners*
0 $1 Rounding radius*
0 $2 $3 $4 $5 $6 $7 $8 $9 X,Y pos of 4 corners*
0 Add a 4 corners polygon primitive as box body*
4,1,4,$2,$3,$4,$5,$6,$7,$8,$9,$2,$3,0*
0 Add four circle primitives for the rounded corners*
1,1,$1+$1,$2,$3*
1,1,$1+$1,$4,$5*
1,1,$1+$1,$6,$7*
1,1,$1+$1,$8,$9*
0 Add four rect primitives between the rounded corners*
20,1,$1+$1,$2,$3,$4,$5,0*
20,1,$1+$1,$4,$5,$6,$7,0*
20,1,$1+$1,$6,$7,$8,$9,0*
20,1,$1+$1,$8,$9,$2,$3,0*%
G04 Aperture macros list end*
%TA.AperFunction,ComponentPad*%
%ADD10RoundRect,0.225000X-0.525000X-1.025000X0.525000X-1.025000X0.525000X1.025000X-0.525000X1.025000X0*%
%TD*%
%TA.AperFunction,ComponentPad*%
%ADD11RoundRect,0.250000X-1.050000X-1.050000X1.050000X-1.050000X1.050000X1.050000X-1.050000X1.050000X0*%
%TD*%
%TA.AperFunction,ComponentPad*%
%ADD12C,2.600000*%
%TD*%
%TA.AperFunction,ComponentPad*%
%ADD13R,1.150000X1.150000*%
%TD*%
%TA.AperFunction,ComponentPad*%
%ADD14C,1.150000*%
%TD*%
%TA.AperFunction,ComponentPad*%
%ADD15R,1.700000X1.700000*%
%TD*%
%TA.AperFunction,ComponentPad*%
%ADD16O,1.700000X1.700000*%
%TD*%
%TA.AperFunction,ComponentPad*%
%ADD17R,1.800000X1.800000*%
%TD*%
%TA.AperFunction,ComponentPad*%
%ADD18C,1.800000*%
%TD*%
%TA.AperFunction,SMDPad,CuDef*%
%ADD19RoundRect,0.250000X-0.650000X0.412500X-0.650000X-0.412500X0.650000X-0.412500X0.650000X0.412500X0*%
%TD*%
%TA.AperFunction,ViaPad*%
%ADD20C,0.600000*%
%TD*%
%TA.AperFunction,Conductor*%
%ADD21C,1.800000*%
%TD*%
%TA.AperFunction,Conductor*%
%ADD22C,2.000000*%
%TD*%
%TA.AperFunction,Conductor*%
%ADD23C,1.500000*%
%TD*%
G04 APERTURE END LIST*
D10*
%TO.P,J3,1,Pin_1*%
%TO.N,+12V*%
X190500000Y-127500000D03*
%TO.P,J3,2,Pin_2*%
%TO.N,+3.3V*%
X192500000Y-127500000D03*
%TO.P,J3,3,Pin_3*%
X194500000Y-127500000D03*
%TO.P,J3,4,Pin_4*%
%TO.N,GND*%
X196500000Y-127500000D03*
%TO.P,J3,5,Pin_5*%
X198500000Y-127500000D03*
%TO.P,J3,6,Pin_6*%
X200500000Y-127500000D03*
%TD*%
D11*
%TO.P,J1,1*%
%TO.N,Net-(F1-Pad1)*%
X108000000Y-114500000D03*
D12*
%TO.P,J1,2*%
%TO.N,V-L*%
X112800000Y-114500000D03*
%TD*%
D13*
%TO.P,PS1,1,-VIN(GND)*%
%TO.N,GND*%
X171340000Y-112000000D03*
D14*
%TO.P,PS1,7,NC*%
%TO.N,unconnected-(PS1-NC-Pad7)*%
X171340000Y-127240000D03*
%TO.P,PS1,8,NC__1*%
%TO.N,unconnected-(PS1-NC__1-Pad8)*%
X171340000Y-129780000D03*
%TO.P,PS1,9,+VOUT*%
%TO.N,+3.3V*%
X181500000Y-129780000D03*
%TO.P,PS1,10,-VOUT*%
%TO.N,GND*%
X181500000Y-127240000D03*
%TO.P,PS1,16,+VIN(VCC)*%
%TO.N,+12V*%
X181500000Y-112000000D03*
%TD*%
D15*
%TO.P,F1,1*%
%TO.N,Net-(F1-Pad1)*%
X110500000Y-110500000D03*
D16*
%TO.P,F1,2*%
%TO.N,Net-(PS2-AC_(L))*%
X113040000Y-110500000D03*
%TD*%
D17*
%TO.P,PS2,1,AC_(L)*%
%TO.N,Net-(PS2-AC_(L))*%
X119000000Y-112500000D03*
D18*
%TO.P,PS2,2,AC_(N)*%
%TO.N,V-L*%
X119000000Y-132800000D03*
%TO.P,PS2,3,+VOUT*%
%TO.N,+12V*%
X164700000Y-112500000D03*
%TO.P,PS2,4,-VOUT*%
%TO.N,GND*%
X164700000Y-134000000D03*
%TD*%
D19*
%TO.P,C2,1*%
%TO.N,+12V*%
X164500000Y-120937500D03*
%TO.P,C2,2*%
%TO.N,GND*%
X164500000Y-124062500D03*
%TD*%
D20*
%TO.N,GND*%
X203599000Y-131000000D03*
X203500000Y-127500000D03*
X203599000Y-132500000D03*
X203599000Y-135000000D03*
X203599000Y-129500000D03*
X203599000Y-134000000D03*
%TO.N,+12V*%
X181500000Y-117500000D03*
X181500000Y-119500000D03*
X181500000Y-114500000D03*
X181500000Y-118500000D03*
X181500000Y-113500000D03*
X181500000Y-115500000D03*
X181500000Y-116500000D03*
%TO.N,+3.3V*%
X192500000Y-129000000D03*
X192500000Y-130000000D03*
X192500000Y-131000000D03*
%TD*%
%TO.N,GND*%
D21*
X203500000Y-127500000D02*
X203500000Y-128500000D01*
D22*
X164500000Y-124062500D02*
X164500000Y-134000000D01*
D21*
X203599000Y-134000000D02*
X203599000Y-135000000D01*
X198500000Y-127500000D02*
X200500000Y-127500000D01*
X203599000Y-132500000D02*
X203599000Y-134000000D01*
X198500000Y-127500000D02*
X196551000Y-127500000D01*
X200500000Y-127500000D02*
X203500000Y-127500000D01*
X203599000Y-129500000D02*
X203599000Y-131000000D01*
X203599000Y-128599000D02*
X203599000Y-129500000D01*
X203599000Y-131000000D02*
X203599000Y-132500000D01*
X203500000Y-128500000D02*
X203599000Y-128599000D01*
%TO.N,+12V*%
D22*
X179524000Y-110024000D02*
X181500000Y-112000000D01*
X164500000Y-112500000D02*
X164500000Y-120937500D01*
X166976000Y-110024000D02*
X179524000Y-110024000D01*
X181500000Y-112000000D02*
X181500000Y-119000000D01*
X164500000Y-112500000D02*
X166976000Y-110024000D01*
%TO.N,+3.3V*%
D23*
X192500000Y-129000000D02*
X192500000Y-130000000D01*
X192500000Y-131000000D02*
X192500000Y-131500000D01*
X192500000Y-127500000D02*
X192500000Y-129000000D01*
X192500000Y-127500000D02*
X194500000Y-127500000D01*
X192500000Y-130000000D02*
X192500000Y-131000000D01*
%TD*%
M02*
