%TF.GenerationSoftware,KiCad,Pcbnew,10.0.5*%
%TF.CreationDate,2026-08-12T19:48:20+09:00*%
%TF.ProjectId,N64Power,4e363450-6f77-4657-922e-6b696361645f,rev?*%
%TF.SameCoordinates,Original*%
%TF.FileFunction,Legend,Bot*%
%TF.FilePolarity,Positive*%
%FSLAX46Y46*%
G04 Gerber Fmt 4.6, Leading zero omitted, Abs format (unit mm)*
G04 Created by KiCad (PCBNEW 10.0.5) date 2026-08-12 19:48:20*
%MOMM*%
%LPD*%
G01*
G04 APERTURE LIST*
%ADD10C,0.125000*%
%ADD11C,0.150000*%
%ADD12C,0.120000*%
G04 APERTURE END LIST*
D10*
G36*
X160901997Y-125144990D02*
G01*
X160690269Y-125144990D01*
X160184534Y-126089981D01*
X160184534Y-125144990D01*
X160013029Y-125144990D01*
X160013029Y-126387500D01*
X160217735Y-126387500D01*
X160730493Y-125438998D01*
X160730493Y-126387500D01*
X160901997Y-126387500D01*
X160901997Y-125144990D01*
G37*
G36*
X159443020Y-125221575D02*
G01*
X159530294Y-125326861D01*
X159602896Y-125433065D01*
X159661854Y-125540511D01*
X159710924Y-125655703D01*
X159744516Y-125764972D01*
X159763982Y-125869188D01*
X159770313Y-125969234D01*
X159764489Y-126054417D01*
X159747680Y-126130698D01*
X159720472Y-126199433D01*
X159682090Y-126262102D01*
X159634759Y-126314240D01*
X159577819Y-126356893D01*
X159513799Y-126387931D01*
X159441472Y-126407088D01*
X159359069Y-126413756D01*
X159277526Y-126407751D01*
X159206345Y-126390583D01*
X159143830Y-126362999D01*
X159087271Y-126324728D01*
X159040610Y-126278853D01*
X159002933Y-126224773D01*
X158975459Y-126164697D01*
X158958792Y-126099736D01*
X158953092Y-126028768D01*
X158953226Y-126027012D01*
X159124596Y-126027012D01*
X159132138Y-126090818D01*
X159153933Y-126145521D01*
X159190236Y-126193250D01*
X159237538Y-126229844D01*
X159293011Y-126251996D01*
X159359069Y-126259730D01*
X159424083Y-126252215D01*
X159479040Y-126230650D01*
X159526223Y-126195006D01*
X159562244Y-126148285D01*
X159584125Y-126093112D01*
X159591787Y-126027012D01*
X159584081Y-125959738D01*
X159562159Y-125904022D01*
X159526223Y-125857264D01*
X159479034Y-125821574D01*
X159424078Y-125799985D01*
X159359069Y-125792463D01*
X159292951Y-125800114D01*
X159237477Y-125822006D01*
X159190236Y-125858103D01*
X159154137Y-125905391D01*
X159132245Y-125960892D01*
X159124596Y-126027012D01*
X158953226Y-126027012D01*
X158958794Y-125954191D01*
X158975277Y-125887544D01*
X159002093Y-125827496D01*
X159038738Y-125772784D01*
X159082047Y-125726977D01*
X159132458Y-125689270D01*
X159188504Y-125661089D01*
X159247943Y-125644226D01*
X159311823Y-125638514D01*
X159381328Y-125644306D01*
X159443949Y-125661148D01*
X159500960Y-125688790D01*
X159553319Y-125727739D01*
X159522266Y-125643292D01*
X159481616Y-125559697D01*
X159430816Y-125476626D01*
X159372712Y-125398230D01*
X159303083Y-125318656D01*
X159220843Y-125237726D01*
X159339835Y-125116979D01*
X159443020Y-125221575D01*
G37*
G36*
X157856365Y-125957021D02*
G01*
X157856365Y-126110971D01*
X158013902Y-126110971D01*
X158013902Y-126387500D01*
X158185406Y-126387500D01*
X158185406Y-126110971D01*
X158703353Y-126110971D01*
X158703353Y-125957021D01*
X158642068Y-125775742D01*
X158570394Y-125583406D01*
X158487884Y-125384495D01*
X158377900Y-125144990D01*
X158201129Y-125144990D01*
X158201129Y-125162469D01*
X158311042Y-125398218D01*
X158392783Y-125592107D01*
X158461573Y-125779729D01*
X158516126Y-125957021D01*
X158185406Y-125957021D01*
X158185406Y-125503722D01*
X158013902Y-125503722D01*
X158013902Y-125957021D01*
X157856365Y-125957021D01*
G37*
G36*
X156553711Y-126387500D02*
G01*
X156382283Y-126387500D01*
X156382283Y-125929010D01*
X156075987Y-125929010D01*
X155971398Y-125921242D01*
X155887376Y-125899822D01*
X155820003Y-125866656D01*
X155766257Y-125822306D01*
X155722912Y-125766170D01*
X155691401Y-125701131D01*
X155671689Y-125625487D01*
X155664743Y-125537000D01*
X155832737Y-125537000D01*
X155839676Y-125602434D01*
X155859585Y-125658334D01*
X155892271Y-125706749D01*
X155936473Y-125743150D01*
X155996049Y-125766413D01*
X156075987Y-125774984D01*
X156382283Y-125774984D01*
X156382283Y-125299016D01*
X156075987Y-125299016D01*
X155995731Y-125307218D01*
X155936178Y-125329376D01*
X155892271Y-125363740D01*
X155860023Y-125410122D01*
X155839912Y-125466922D01*
X155832737Y-125537000D01*
X155664743Y-125537000D01*
X155671539Y-125448350D01*
X155690801Y-125372663D01*
X155721526Y-125307708D01*
X155763662Y-125251770D01*
X155816130Y-125207688D01*
X155883236Y-125174492D01*
X155968387Y-125152882D01*
X156075987Y-125144990D01*
X156553711Y-125144990D01*
X156553711Y-126387500D01*
G37*
G36*
X155490339Y-126226528D02*
G01*
X155380048Y-126107536D01*
X155299534Y-126169748D01*
X155207704Y-126216911D01*
X155109302Y-126246510D01*
X155010783Y-126256219D01*
X154929197Y-126249978D01*
X154864386Y-126232840D01*
X154813023Y-126206378D01*
X154771690Y-126168524D01*
X154747736Y-126124091D01*
X154739521Y-126070747D01*
X154743848Y-126036155D01*
X154756543Y-126005597D01*
X154778066Y-125978011D01*
X154820896Y-125942525D01*
X154878663Y-125908860D01*
X155016050Y-125850242D01*
X155166564Y-125789028D01*
X155239213Y-125752758D01*
X155303951Y-125712015D01*
X155360545Y-125663747D01*
X155404625Y-125607907D01*
X155425525Y-125566089D01*
X155438528Y-125517831D01*
X155443093Y-125461743D01*
X155438543Y-125406888D01*
X155425338Y-125357670D01*
X155403709Y-125313060D01*
X155358330Y-125253663D01*
X155300440Y-125204525D01*
X155233808Y-125166254D01*
X155161298Y-125138884D01*
X155086342Y-125122303D01*
X155016050Y-125116979D01*
X154937673Y-125122164D01*
X154862080Y-125137602D01*
X154788599Y-125163385D01*
X154719386Y-125198874D01*
X154657773Y-125242797D01*
X154603050Y-125295505D01*
X154718531Y-125402285D01*
X154792336Y-125340883D01*
X154859429Y-125304282D01*
X154931608Y-125283554D01*
X155016050Y-125276271D01*
X155073472Y-125281641D01*
X155132447Y-125298176D01*
X155186986Y-125325153D01*
X155231365Y-125361145D01*
X155253896Y-125390535D01*
X155267113Y-125422553D01*
X155271589Y-125458232D01*
X155267260Y-125494048D01*
X155254568Y-125525806D01*
X155233121Y-125554555D01*
X155189991Y-125591523D01*
X155131607Y-125626301D01*
X154993305Y-125687515D01*
X154843706Y-125750560D01*
X154771586Y-125786498D01*
X154706319Y-125826657D01*
X154648970Y-125874108D01*
X154604806Y-125929010D01*
X154583813Y-125970200D01*
X154570856Y-126017031D01*
X154566338Y-126070747D01*
X154573817Y-126146327D01*
X154595358Y-126211988D01*
X154630692Y-126269775D01*
X154680979Y-126321020D01*
X154740044Y-126360034D01*
X154812726Y-126389527D01*
X154901835Y-126408615D01*
X155010783Y-126415511D01*
X155103029Y-126409423D01*
X155191447Y-126391347D01*
X155276855Y-126361243D01*
X155358410Y-126321116D01*
X155429218Y-126276170D01*
X155490339Y-126226528D01*
G37*
G36*
X153679583Y-125144990D02*
G01*
X153504644Y-125144990D01*
X153504644Y-125902754D01*
X153509618Y-125999171D01*
X153523461Y-126079766D01*
X153544868Y-126146920D01*
X153575624Y-126210292D01*
X153610955Y-126262285D01*
X153650732Y-126304381D01*
X153720198Y-126354995D01*
X153795141Y-126388339D01*
X153874086Y-126407511D01*
X153950846Y-126413756D01*
X154027615Y-126407512D01*
X154106627Y-126388339D01*
X154181570Y-126354995D01*
X154251035Y-126304381D01*
X154290773Y-126262293D01*
X154326104Y-126210301D01*
X154356899Y-126146920D01*
X154378307Y-126079766D01*
X154392150Y-125999171D01*
X154397123Y-125902754D01*
X154397123Y-125144990D01*
X154222108Y-125144990D01*
X154222108Y-125902754D01*
X154217350Y-125982769D01*
X154204325Y-126046874D01*
X154184479Y-126097919D01*
X154155775Y-126144304D01*
X154122595Y-126180301D01*
X154084721Y-126207294D01*
X154020240Y-126233498D01*
X153950846Y-126242251D01*
X153881451Y-126233498D01*
X153816970Y-126207294D01*
X153779096Y-126180301D01*
X153745916Y-126144304D01*
X153717212Y-126097919D01*
X153697366Y-126046874D01*
X153684341Y-125982769D01*
X153679583Y-125902754D01*
X153679583Y-125144990D01*
G37*
G36*
X152210768Y-126387500D02*
G01*
X152039264Y-126387500D01*
X152039264Y-125893976D01*
X151824025Y-125893976D01*
X151496739Y-126387500D01*
X151309512Y-126387500D01*
X151309512Y-126370021D01*
X151641987Y-125881764D01*
X151571665Y-125861678D01*
X151513685Y-125834070D01*
X151466146Y-125799399D01*
X151427664Y-125757506D01*
X151389195Y-125691211D01*
X151365228Y-125612857D01*
X151356758Y-125519521D01*
X151524751Y-125519521D01*
X151531696Y-125581287D01*
X151551575Y-125633360D01*
X151584285Y-125677898D01*
X151627973Y-125710767D01*
X151687508Y-125732102D01*
X151768002Y-125740027D01*
X152039264Y-125740027D01*
X152039264Y-125299016D01*
X151768002Y-125299016D01*
X151687496Y-125306324D01*
X151627668Y-125325958D01*
X151583620Y-125355933D01*
X151552122Y-125396400D01*
X151532082Y-125449608D01*
X151524751Y-125519521D01*
X151356758Y-125519521D01*
X151363685Y-125430671D01*
X151383125Y-125356643D01*
X151413835Y-125294762D01*
X151455676Y-125242993D01*
X151507525Y-125202905D01*
X151574351Y-125172370D01*
X151659697Y-125152337D01*
X151768002Y-125144990D01*
X152210768Y-125144990D01*
X152210768Y-126387500D01*
G37*
G36*
X150792789Y-125405951D02*
G01*
X150878830Y-125431423D01*
X150953190Y-125472570D01*
X151017794Y-125530054D01*
X151068189Y-125599370D01*
X151105787Y-125683603D01*
X151129886Y-125785799D01*
X151138542Y-125909776D01*
X151131244Y-126016900D01*
X151110670Y-126107896D01*
X151078168Y-126185389D01*
X151032197Y-126255332D01*
X150976757Y-126312054D01*
X150911091Y-126356893D01*
X150837863Y-126388972D01*
X150756718Y-126408692D01*
X150666085Y-126415511D01*
X150596264Y-126412398D01*
X150515570Y-126402383D01*
X150430308Y-126380890D01*
X150316054Y-126334987D01*
X150373833Y-126202028D01*
X150460431Y-126234771D01*
X150534804Y-126252784D01*
X150648530Y-126264996D01*
X150725372Y-126258539D01*
X150795533Y-126239656D01*
X150858096Y-126206382D01*
X150909335Y-126157377D01*
X150934972Y-126117269D01*
X150954432Y-126067490D01*
X150967038Y-126006023D01*
X150300331Y-126006023D01*
X150284934Y-125935523D01*
X150278552Y-125864817D01*
X150278821Y-125857264D01*
X150431535Y-125857264D01*
X150974060Y-125857264D01*
X150965818Y-125777584D01*
X150941697Y-125705909D01*
X150916692Y-125662550D01*
X150885342Y-125625401D01*
X150847206Y-125593863D01*
X150803971Y-125570443D01*
X150754556Y-125556007D01*
X150697531Y-125550968D01*
X150638194Y-125556072D01*
X150587707Y-125570571D01*
X150544421Y-125593863D01*
X150506556Y-125625522D01*
X150476418Y-125662657D01*
X150453441Y-125705909D01*
X150433673Y-125777370D01*
X150431535Y-125857264D01*
X150278821Y-125857264D01*
X150281097Y-125793379D01*
X150292506Y-125722900D01*
X150312340Y-125657203D01*
X150340555Y-125595618D01*
X150377581Y-125539423D01*
X150422871Y-125491540D01*
X150477102Y-125451286D01*
X150537638Y-125421954D01*
X150608640Y-125403533D01*
X150692341Y-125397018D01*
X150792789Y-125405951D01*
G37*
G36*
X149607167Y-125405432D02*
G01*
X149676977Y-125430297D01*
X149739990Y-125467335D01*
X149789863Y-125508989D01*
X149807342Y-125410986D01*
X150117149Y-125410986D01*
X150117149Y-125512500D01*
X149954346Y-125540511D01*
X149954346Y-126732264D01*
X149789863Y-126732264D01*
X149789863Y-126321020D01*
X149752567Y-126346510D01*
X149708500Y-126368265D01*
X149659946Y-126382486D01*
X149602636Y-126387500D01*
X149524269Y-126379937D01*
X149453349Y-126357809D01*
X149388237Y-126321020D01*
X149330725Y-126272152D01*
X149280342Y-126211948D01*
X149236882Y-126138982D01*
X149204136Y-126060219D01*
X149181249Y-125973686D01*
X149168647Y-125878253D01*
X149168036Y-125782373D01*
X149337793Y-125782373D01*
X149338396Y-125878253D01*
X149352836Y-125973191D01*
X149381215Y-126057619D01*
X149423546Y-126132033D01*
X149474866Y-126187144D01*
X149515536Y-126213869D01*
X149560027Y-126229797D01*
X149609582Y-126235229D01*
X149667729Y-126226215D01*
X149719033Y-126199356D01*
X149760868Y-126158777D01*
X149789863Y-126109215D01*
X149789863Y-125713771D01*
X149747564Y-125648274D01*
X149691021Y-125595618D01*
X149646594Y-125569755D01*
X149599384Y-125554401D01*
X149548368Y-125549212D01*
X149491829Y-125555413D01*
X149446119Y-125572839D01*
X149408828Y-125600998D01*
X149378620Y-125641109D01*
X149351896Y-125704536D01*
X149337793Y-125782373D01*
X149168036Y-125782373D01*
X149168011Y-125778497D01*
X149179874Y-125693231D01*
X149202765Y-125620119D01*
X149237959Y-125552524D01*
X149281320Y-125497985D01*
X149333129Y-125454797D01*
X149392557Y-125422960D01*
X149457975Y-125403653D01*
X149530890Y-125397018D01*
X149607167Y-125405432D01*
G37*
G36*
X148908452Y-125075000D02*
G01*
X148528654Y-125075000D01*
X148528654Y-126077769D01*
X148519953Y-126148599D01*
X148505798Y-126181072D01*
X148480569Y-126207218D01*
X148444952Y-126223490D01*
X148386917Y-126229963D01*
X148180456Y-126229963D01*
X148180456Y-126387500D01*
X148472708Y-126387500D01*
X148535403Y-126381819D01*
X148582623Y-126366476D01*
X148617956Y-126342925D01*
X148646716Y-126310683D01*
X148668562Y-126272533D01*
X148683596Y-126227444D01*
X148695938Y-126155290D01*
X148700159Y-126077769D01*
X148700159Y-125211470D01*
X148908452Y-125174757D01*
X148908452Y-125075000D01*
G37*
G36*
X147530207Y-125401755D02*
G01*
X147619231Y-125416253D01*
X147707785Y-125441218D01*
X147799513Y-125479221D01*
X147717234Y-125610502D01*
X147646493Y-125580412D01*
X147588625Y-125564096D01*
X147531508Y-125555564D01*
X147473983Y-125552723D01*
X147387955Y-125559432D01*
X147338352Y-125575468D01*
X147302831Y-125604025D01*
X147282405Y-125643780D01*
X147272861Y-125692014D01*
X147269277Y-125755750D01*
X147269277Y-125780251D01*
X147410175Y-125781167D01*
X147488065Y-125788536D01*
X147567635Y-125802156D01*
X147644699Y-125823961D01*
X147714639Y-125855508D01*
X147775536Y-125898917D01*
X147823098Y-125955266D01*
X147845238Y-125999035D01*
X147859244Y-126051459D01*
X147864238Y-126114482D01*
X147858239Y-126181717D01*
X147841350Y-126237584D01*
X147814397Y-126284307D01*
X147778114Y-126325014D01*
X147736580Y-126357782D01*
X147689222Y-126383149D01*
X147613412Y-126407635D01*
X147540463Y-126415511D01*
X147462552Y-126411279D01*
X147400495Y-126399747D01*
X147351480Y-126382309D01*
X147285238Y-126344489D01*
X147235999Y-126301786D01*
X147203008Y-126347429D01*
X147156391Y-126379638D01*
X147119718Y-126392318D01*
X147069351Y-126400172D01*
X147001526Y-126401467D01*
X147001526Y-126259730D01*
X147051311Y-126249656D01*
X147077623Y-126230879D01*
X147092225Y-126201787D01*
X147097773Y-126158217D01*
X147097773Y-125918477D01*
X147269277Y-125918477D01*
X147269277Y-126114482D01*
X147305236Y-126165260D01*
X147357586Y-126213400D01*
X147399040Y-126236883D01*
X147453549Y-126252283D01*
X147524740Y-126257974D01*
X147571290Y-126253430D01*
X147613848Y-126240071D01*
X147653349Y-126217751D01*
X147685027Y-126187315D01*
X147703715Y-126150681D01*
X147710212Y-126105781D01*
X147705140Y-126059712D01*
X147690983Y-126023103D01*
X147668233Y-125993811D01*
X147621257Y-125959821D01*
X147559774Y-125936032D01*
X147491622Y-125922358D01*
X147416281Y-125915882D01*
X147269277Y-125918477D01*
X147097773Y-125918477D01*
X147097773Y-125664770D01*
X147102197Y-125603718D01*
X147114285Y-125555569D01*
X147132807Y-125517766D01*
X147173150Y-125470423D01*
X147222871Y-125438158D01*
X147279158Y-125417109D01*
X147337513Y-125404880D01*
X147444216Y-125397018D01*
X147530207Y-125401755D01*
G37*
G36*
X146312532Y-126415511D02*
G01*
X146401996Y-126410298D01*
X146479969Y-126394048D01*
X146548200Y-126367680D01*
X146608127Y-126331491D01*
X146660807Y-126285146D01*
X146704242Y-126230781D01*
X146738876Y-126167581D01*
X146764673Y-126094203D01*
X146781033Y-126008938D01*
X146786821Y-125909776D01*
X146778227Y-125788847D01*
X146754147Y-125687845D01*
X146716306Y-125603351D01*
X146665234Y-125532650D01*
X146613988Y-125484777D01*
X146555698Y-125447414D01*
X146489360Y-125420092D01*
X146413566Y-125403008D01*
X146326576Y-125397018D01*
X146251265Y-125403698D01*
X146182596Y-125423249D01*
X146119199Y-125455637D01*
X146063090Y-125499491D01*
X146016920Y-125553064D01*
X145980057Y-125617524D01*
X146113016Y-125678737D01*
X146150963Y-125624185D01*
X146200562Y-125584246D01*
X146259520Y-125559435D01*
X146326576Y-125550968D01*
X146394138Y-125557313D01*
X146451445Y-125575369D01*
X146500521Y-125604562D01*
X146542731Y-125645536D01*
X146575144Y-125694332D01*
X146599423Y-125753235D01*
X146614998Y-125824238D01*
X146620584Y-125909776D01*
X146614865Y-125993221D01*
X146598863Y-126062874D01*
X146573779Y-126121063D01*
X146540060Y-126169665D01*
X146496730Y-126209815D01*
X146445529Y-126238756D01*
X146384878Y-126256840D01*
X146312532Y-126263241D01*
X146233147Y-126255594D01*
X146163849Y-126233550D01*
X146099488Y-126199237D01*
X146037835Y-126154782D01*
X145950290Y-126278964D01*
X146025573Y-126334839D01*
X146113932Y-126377882D01*
X146209861Y-126405122D01*
X146312532Y-126415511D01*
G37*
G36*
X145370598Y-125405951D02*
G01*
X145456639Y-125431423D01*
X145530999Y-125472570D01*
X145595603Y-125530054D01*
X145645998Y-125599370D01*
X145683596Y-125683603D01*
X145707695Y-125785799D01*
X145716351Y-125909776D01*
X145709053Y-126016900D01*
X145688479Y-126107896D01*
X145655977Y-126185389D01*
X145610006Y-126255332D01*
X145554566Y-126312054D01*
X145488900Y-126356893D01*
X145415671Y-126388972D01*
X145334527Y-126408692D01*
X145243893Y-126415511D01*
X145174073Y-126412398D01*
X145093379Y-126402383D01*
X145008117Y-126380890D01*
X144893863Y-126334987D01*
X144951642Y-126202028D01*
X145038240Y-126234771D01*
X145112613Y-126252784D01*
X145226338Y-126264996D01*
X145303180Y-126258539D01*
X145373342Y-126239656D01*
X145435905Y-126206382D01*
X145487144Y-126157377D01*
X145512780Y-126117269D01*
X145532241Y-126067490D01*
X145544846Y-126006023D01*
X144878140Y-126006023D01*
X144862743Y-125935523D01*
X144856361Y-125864817D01*
X144856630Y-125857264D01*
X145009344Y-125857264D01*
X145551868Y-125857264D01*
X145543627Y-125777584D01*
X145519506Y-125705909D01*
X145494501Y-125662550D01*
X145463151Y-125625401D01*
X145425015Y-125593863D01*
X145381779Y-125570443D01*
X145332365Y-125556007D01*
X145275340Y-125550968D01*
X145216003Y-125556072D01*
X145165516Y-125570571D01*
X145122230Y-125593863D01*
X145084365Y-125625522D01*
X145054227Y-125662657D01*
X145031250Y-125705909D01*
X145011481Y-125777370D01*
X145009344Y-125857264D01*
X144856630Y-125857264D01*
X144858906Y-125793379D01*
X144870314Y-125722900D01*
X144890149Y-125657203D01*
X144918364Y-125595618D01*
X144955390Y-125539423D01*
X145000680Y-125491540D01*
X145054911Y-125451286D01*
X145115447Y-125421954D01*
X145186449Y-125403533D01*
X145270150Y-125397018D01*
X145370598Y-125405951D01*
G37*
G36*
X144640690Y-126387500D02*
G01*
X144650157Y-126168043D01*
X144654658Y-125922904D01*
X144652937Y-125672741D01*
X144644201Y-125418008D01*
X144502464Y-125418008D01*
X144488420Y-125508989D01*
X144438027Y-125463036D01*
X144382556Y-125427625D01*
X144324263Y-125404089D01*
X144274936Y-125397018D01*
X144221278Y-125405047D01*
X144180445Y-125427625D01*
X144149266Y-125462738D01*
X144127933Y-125508989D01*
X144079282Y-125464292D01*
X144024740Y-125428541D01*
X143966915Y-125404384D01*
X143916205Y-125397018D01*
X143865029Y-125403434D01*
X143822868Y-125421754D01*
X143787595Y-125452126D01*
X143761528Y-125491586D01*
X143743305Y-125543282D01*
X143734167Y-125610502D01*
X143727005Y-125863695D01*
X143728693Y-126122613D01*
X143739434Y-126387500D01*
X143905672Y-126387500D01*
X143895215Y-126132037D01*
X143890864Y-125881764D01*
X143895139Y-125663014D01*
X143900390Y-125609879D01*
X143910938Y-125572034D01*
X143923604Y-125553237D01*
X143944111Y-125541465D01*
X143975662Y-125537000D01*
X144009684Y-125544368D01*
X144048325Y-125569362D01*
X144083694Y-125603448D01*
X144113889Y-125640269D01*
X144124422Y-126252784D01*
X144257458Y-126252784D01*
X144266159Y-125655992D01*
X144272442Y-125603576D01*
X144285469Y-125568523D01*
X144308448Y-125545217D01*
X144344927Y-125537000D01*
X144379194Y-125543989D01*
X144418429Y-125567607D01*
X144454644Y-125600556D01*
X144486664Y-125638514D01*
X144491708Y-125816885D01*
X144489336Y-126005183D01*
X144474452Y-126387500D01*
X144640690Y-126387500D01*
G37*
G36*
X143201721Y-125405951D02*
G01*
X143287762Y-125431423D01*
X143362123Y-125472570D01*
X143426727Y-125530054D01*
X143477121Y-125599370D01*
X143514719Y-125683603D01*
X143538819Y-125785799D01*
X143547474Y-125909776D01*
X143540177Y-126016900D01*
X143519603Y-126107896D01*
X143487100Y-126185389D01*
X143441130Y-126255332D01*
X143385690Y-126312054D01*
X143320023Y-126356893D01*
X143246795Y-126388972D01*
X143165651Y-126408692D01*
X143075017Y-126415511D01*
X143005196Y-126412398D01*
X142924502Y-126402383D01*
X142839241Y-126380890D01*
X142724986Y-126334987D01*
X142782765Y-126202028D01*
X142869363Y-126234771D01*
X142943736Y-126252784D01*
X143057462Y-126264996D01*
X143134304Y-126258539D01*
X143204466Y-126239656D01*
X143267029Y-126206382D01*
X143318268Y-126157377D01*
X143343904Y-126117269D01*
X143363365Y-126067490D01*
X143375970Y-126006023D01*
X142709263Y-126006023D01*
X142693866Y-125935523D01*
X142687484Y-125864817D01*
X142687753Y-125857264D01*
X142840467Y-125857264D01*
X143382992Y-125857264D01*
X143374751Y-125777584D01*
X143350630Y-125705909D01*
X143325625Y-125662550D01*
X143294274Y-125625401D01*
X143256138Y-125593863D01*
X143212903Y-125570443D01*
X143163488Y-125556007D01*
X143106463Y-125550968D01*
X143047127Y-125556072D01*
X142996640Y-125570571D01*
X142953353Y-125593863D01*
X142915488Y-125625522D01*
X142885350Y-125662657D01*
X142862373Y-125705909D01*
X142842605Y-125777370D01*
X142840467Y-125857264D01*
X142687753Y-125857264D01*
X142690029Y-125793379D01*
X142701438Y-125722900D01*
X142721273Y-125657203D01*
X142749487Y-125595618D01*
X142786513Y-125539423D01*
X142831804Y-125491540D01*
X142886034Y-125451286D01*
X142946570Y-125421954D01*
X143017572Y-125403533D01*
X143101273Y-125397018D01*
X143201721Y-125405951D01*
G37*
G36*
X142412279Y-126387500D02*
G01*
X142412279Y-125418008D01*
X142261765Y-125418008D01*
X142246041Y-125535245D01*
X142164953Y-125481017D01*
X142072782Y-125435563D01*
X142007672Y-125412890D01*
X141946089Y-125400325D01*
X141887310Y-125397018D01*
X141822976Y-125405117D01*
X141763051Y-125429381D01*
X141728066Y-125454528D01*
X141697204Y-125488994D01*
X141670315Y-125534405D01*
X141651943Y-125584102D01*
X141639763Y-125647525D01*
X141635282Y-125727739D01*
X141635282Y-126387500D01*
X141808541Y-126387500D01*
X141808541Y-125755750D01*
X141813212Y-125688428D01*
X141825282Y-125641473D01*
X141842659Y-125609662D01*
X141868443Y-125585475D01*
X141902276Y-125570452D01*
X141946768Y-125565012D01*
X142008741Y-125572177D01*
X142080720Y-125595618D01*
X142153735Y-125633920D01*
X142244286Y-125697971D01*
X142244286Y-126387500D01*
X142412279Y-126387500D01*
G37*
G36*
X140862329Y-126387500D02*
G01*
X140923864Y-126381833D01*
X140970269Y-126366508D01*
X141005059Y-126342925D01*
X141033270Y-126310746D01*
X141054826Y-126272599D01*
X141069783Y-126227444D01*
X141082125Y-126155290D01*
X141086346Y-126077769D01*
X141086346Y-125578979D01*
X141355853Y-125578979D01*
X141355853Y-125425030D01*
X141086346Y-125425030D01*
X141086346Y-125199258D01*
X140914842Y-125199258D01*
X140914842Y-125425030D01*
X140554354Y-125425030D01*
X140554354Y-125578979D01*
X140914842Y-125578979D01*
X140914842Y-126077769D01*
X140906140Y-126148599D01*
X140891985Y-126181072D01*
X140866756Y-126207218D01*
X140831083Y-126223494D01*
X140773104Y-126229963D01*
X140559621Y-126229963D01*
X140559621Y-126387500D01*
X140862329Y-126387500D01*
G37*
G36*
X160072487Y-128487500D02*
G01*
X160842463Y-128487500D01*
X160842463Y-128333474D01*
X160543265Y-128333474D01*
X160543265Y-127399016D01*
X160833762Y-127399016D01*
X160833762Y-127244990D01*
X160081265Y-127244990D01*
X160081265Y-127399016D01*
X160371761Y-127399016D01*
X160371761Y-128333474D01*
X160072487Y-128333474D01*
X160072487Y-128487500D01*
G37*
G36*
X159763291Y-128487500D02*
G01*
X159763291Y-127518008D01*
X159612776Y-127518008D01*
X159597053Y-127635245D01*
X159515964Y-127581017D01*
X159423794Y-127535563D01*
X159358684Y-127512890D01*
X159297101Y-127500325D01*
X159238322Y-127497018D01*
X159173988Y-127505117D01*
X159114063Y-127529381D01*
X159079078Y-127554528D01*
X159048216Y-127588994D01*
X159021327Y-127634405D01*
X159002955Y-127684102D01*
X158990775Y-127747525D01*
X158986294Y-127827739D01*
X158986294Y-128487500D01*
X159159553Y-128487500D01*
X159159553Y-127855750D01*
X159164224Y-127788428D01*
X159176294Y-127741473D01*
X159193671Y-127709662D01*
X159219455Y-127685475D01*
X159253288Y-127670452D01*
X159297780Y-127665012D01*
X159359752Y-127672177D01*
X159431731Y-127695618D01*
X159504747Y-127733920D01*
X159595298Y-127797971D01*
X159595298Y-128487500D01*
X159763291Y-128487500D01*
G37*
G36*
X158282673Y-127505432D02*
G01*
X158352483Y-127530297D01*
X158415496Y-127567335D01*
X158465369Y-127608989D01*
X158482848Y-127510986D01*
X158792655Y-127510986D01*
X158792655Y-127612500D01*
X158629852Y-127640511D01*
X158629852Y-128832264D01*
X158465369Y-128832264D01*
X158465369Y-128421020D01*
X158428073Y-128446510D01*
X158384006Y-128468265D01*
X158335451Y-128482486D01*
X158278142Y-128487500D01*
X158199775Y-128479937D01*
X158128855Y-128457809D01*
X158063743Y-128421020D01*
X158006231Y-128372152D01*
X157955848Y-128311948D01*
X157912388Y-128238982D01*
X157879642Y-128160219D01*
X157856755Y-128073686D01*
X157844153Y-127978253D01*
X157843542Y-127882373D01*
X158013299Y-127882373D01*
X158013902Y-127978253D01*
X158028342Y-128073191D01*
X158056721Y-128157619D01*
X158099052Y-128232033D01*
X158150372Y-128287144D01*
X158191042Y-128313869D01*
X158235533Y-128329797D01*
X158285088Y-128335229D01*
X158343235Y-128326215D01*
X158394539Y-128299356D01*
X158436374Y-128258777D01*
X158465369Y-128209215D01*
X158465369Y-127813771D01*
X158423070Y-127748274D01*
X158366527Y-127695618D01*
X158322100Y-127669755D01*
X158274890Y-127654401D01*
X158223874Y-127649212D01*
X158167335Y-127655413D01*
X158121625Y-127672839D01*
X158084334Y-127700998D01*
X158054125Y-127741109D01*
X158027402Y-127804536D01*
X158013299Y-127882373D01*
X157843542Y-127882373D01*
X157843517Y-127878497D01*
X157855380Y-127793231D01*
X157878271Y-127720119D01*
X157913465Y-127652524D01*
X157956826Y-127597985D01*
X158008635Y-127554797D01*
X158068063Y-127522960D01*
X158133481Y-127503653D01*
X158206396Y-127497018D01*
X158282673Y-127505432D01*
G37*
G36*
X157331930Y-128515511D02*
G01*
X157407565Y-128504857D01*
X157474583Y-128477043D01*
X157512886Y-128448393D01*
X157546415Y-128408563D01*
X157575257Y-128355379D01*
X157594392Y-128297525D01*
X157607218Y-128222669D01*
X157611970Y-128127012D01*
X157611970Y-127525030D01*
X157438710Y-127525030D01*
X157438710Y-128037787D01*
X157435682Y-128124520D01*
X157427337Y-128196164D01*
X157409640Y-128260093D01*
X157382687Y-128305539D01*
X157357809Y-128327163D01*
X157324839Y-128340789D01*
X157281173Y-128345762D01*
X157220024Y-128339236D01*
X157154320Y-128318667D01*
X157088514Y-128283783D01*
X157006400Y-128223259D01*
X157006400Y-127525030D01*
X156838407Y-127525030D01*
X156838407Y-128258217D01*
X156832446Y-128301632D01*
X156816577Y-128330879D01*
X156788814Y-128349731D01*
X156738649Y-128359730D01*
X156738649Y-128501467D01*
X156815696Y-128499980D01*
X156870466Y-128489521D01*
X156908474Y-128472616D01*
X156940804Y-128446590D01*
X156966957Y-128412908D01*
X156987166Y-128370263D01*
X157065430Y-128425635D01*
X157150809Y-128473532D01*
X157210939Y-128497863D01*
X157271073Y-128511698D01*
X157331930Y-128515511D01*
G37*
G36*
X156044465Y-128487500D02*
G01*
X156105999Y-128481833D01*
X156152404Y-128466508D01*
X156187194Y-128442925D01*
X156215406Y-128410746D01*
X156236961Y-128372599D01*
X156251919Y-128327444D01*
X156264261Y-128255290D01*
X156268481Y-128177769D01*
X156268481Y-127678979D01*
X156537988Y-127678979D01*
X156537988Y-127525030D01*
X156268481Y-127525030D01*
X156268481Y-127299258D01*
X156096977Y-127299258D01*
X156096977Y-127525030D01*
X155736490Y-127525030D01*
X155736490Y-127678979D01*
X156096977Y-127678979D01*
X156096977Y-128177769D01*
X156088276Y-128248599D01*
X156074121Y-128281072D01*
X156048892Y-128307218D01*
X156013218Y-128323494D01*
X155955240Y-128329963D01*
X155741756Y-128329963D01*
X155741756Y-128487500D01*
X156044465Y-128487500D01*
G37*
G36*
X151080840Y-128487500D02*
G01*
X151080840Y-128333474D01*
X150758821Y-128333474D01*
X150758821Y-127523275D01*
X150838507Y-127572602D01*
X150925707Y-127612276D01*
X151021305Y-127642267D01*
X151093052Y-127482974D01*
X150989861Y-127450829D01*
X150883919Y-127397260D01*
X150818020Y-127351319D01*
X150763253Y-127300619D01*
X150718521Y-127244990D01*
X150583805Y-127244990D01*
X150583805Y-128333474D01*
X150288043Y-128333474D01*
X150288043Y-128487500D01*
X151080840Y-128487500D01*
G37*
G36*
X149694801Y-127222952D02*
G01*
X149766057Y-127239689D01*
X149825737Y-127265980D01*
X149879555Y-127302889D01*
X149925456Y-127348150D01*
X149964039Y-127402527D01*
X149994386Y-127462497D01*
X150019014Y-127530685D01*
X150037541Y-127608149D01*
X150053693Y-127729153D01*
X150059370Y-127866283D01*
X150053725Y-128001893D01*
X150037541Y-128123501D01*
X150018991Y-128201531D01*
X149994356Y-128270011D01*
X149964039Y-128330039D01*
X149925460Y-128384368D01*
X149879561Y-128429605D01*
X149825737Y-128466510D01*
X149766057Y-128492801D01*
X149694801Y-128509537D01*
X149609582Y-128515511D01*
X149524412Y-128509522D01*
X149453514Y-128492772D01*
X149394419Y-128466510D01*
X149341245Y-128429589D01*
X149296243Y-128384359D01*
X149258788Y-128330039D01*
X149229514Y-128270096D01*
X149205737Y-128201620D01*
X149187881Y-128123501D01*
X149172322Y-128001921D01*
X149166892Y-127866283D01*
X149166962Y-127864528D01*
X149338396Y-127864528D01*
X149340677Y-127967675D01*
X149347173Y-128059617D01*
X149360776Y-128146360D01*
X149382131Y-128217153D01*
X149403180Y-128259429D01*
X149429941Y-128294089D01*
X149462654Y-128322101D01*
X149500602Y-128342067D01*
X149548723Y-128355009D01*
X149609582Y-128359730D01*
X149666877Y-128355350D01*
X149713767Y-128343167D01*
X149755200Y-128322895D01*
X149788108Y-128296761D01*
X149364652Y-127563498D01*
X149351782Y-127626851D01*
X149343662Y-127701724D01*
X149338396Y-127864528D01*
X149166962Y-127864528D01*
X149172352Y-127729124D01*
X149187881Y-127608149D01*
X149216888Y-127495404D01*
X149243018Y-127437484D01*
X149431132Y-127437484D01*
X149856343Y-128172503D01*
X149872072Y-128107355D01*
X149881760Y-128031681D01*
X149887866Y-127864528D01*
X149885360Y-127761433D01*
X149878249Y-127670278D01*
X149863526Y-127584378D01*
X149840620Y-127513657D01*
X149818401Y-127471463D01*
X149790507Y-127437084D01*
X149756662Y-127409549D01*
X149717643Y-127389929D01*
X149669346Y-127377318D01*
X149609582Y-127372760D01*
X149550921Y-127377214D01*
X149504634Y-127389399D01*
X149464050Y-127409925D01*
X149431132Y-127437484D01*
X149243018Y-127437484D01*
X149258788Y-127402527D01*
X149296247Y-127348159D01*
X149341250Y-127302905D01*
X149394419Y-127265980D01*
X149453514Y-127239717D01*
X149524412Y-127222968D01*
X149609582Y-127216979D01*
X149694801Y-127222952D01*
G37*
G36*
X148610362Y-127222952D02*
G01*
X148681618Y-127239689D01*
X148741298Y-127265980D01*
X148795117Y-127302889D01*
X148841018Y-127348150D01*
X148879601Y-127402527D01*
X148909948Y-127462497D01*
X148934576Y-127530685D01*
X148953103Y-127608149D01*
X148969255Y-127729153D01*
X148974932Y-127866283D01*
X148969287Y-128001893D01*
X148953103Y-128123501D01*
X148934553Y-128201531D01*
X148909917Y-128270011D01*
X148879601Y-128330039D01*
X148841022Y-128384368D01*
X148795122Y-128429605D01*
X148741298Y-128466510D01*
X148681618Y-128492801D01*
X148610362Y-128509537D01*
X148525143Y-128515511D01*
X148439974Y-128509522D01*
X148369076Y-128492772D01*
X148309981Y-128466510D01*
X148256807Y-128429589D01*
X148211805Y-128384359D01*
X148174350Y-128330039D01*
X148145076Y-128270096D01*
X148121299Y-128201620D01*
X148103443Y-128123501D01*
X148087884Y-128001921D01*
X148082453Y-127866283D01*
X148082523Y-127864528D01*
X148253958Y-127864528D01*
X148256238Y-127967675D01*
X148262735Y-128059617D01*
X148276338Y-128146360D01*
X148297692Y-128217153D01*
X148318741Y-128259429D01*
X148345503Y-128294089D01*
X148378216Y-128322101D01*
X148416164Y-128342067D01*
X148464285Y-128355009D01*
X148525143Y-128359730D01*
X148582439Y-128355350D01*
X148629328Y-128343167D01*
X148670762Y-128322895D01*
X148703670Y-128296761D01*
X148280214Y-127563498D01*
X148267344Y-127626851D01*
X148259224Y-127701724D01*
X148253958Y-127864528D01*
X148082523Y-127864528D01*
X148087914Y-127729124D01*
X148103443Y-127608149D01*
X148132449Y-127495404D01*
X148158579Y-127437484D01*
X148346693Y-127437484D01*
X148771905Y-128172503D01*
X148787634Y-128107355D01*
X148797322Y-128031681D01*
X148803428Y-127864528D01*
X148800922Y-127761433D01*
X148793811Y-127670278D01*
X148779088Y-127584378D01*
X148756182Y-127513657D01*
X148733962Y-127471463D01*
X148706069Y-127437084D01*
X148672223Y-127409549D01*
X148633204Y-127389929D01*
X148584908Y-127377318D01*
X148525143Y-127372760D01*
X148466482Y-127377214D01*
X148420195Y-127389399D01*
X148379612Y-127409925D01*
X148346693Y-127437484D01*
X148158579Y-127437484D01*
X148174350Y-127402527D01*
X148211809Y-127348159D01*
X148256812Y-127302905D01*
X148309981Y-127265980D01*
X148369076Y-127239717D01*
X148439974Y-127222968D01*
X148525143Y-127216979D01*
X148610362Y-127222952D01*
G37*
G36*
X147085484Y-127874984D02*
G01*
X147085484Y-128025499D01*
X147803024Y-128025499D01*
X147803024Y-127874984D01*
X147085484Y-127874984D01*
G37*
G36*
X146755299Y-127384972D02*
G01*
X146667604Y-127317547D01*
X146568071Y-127265140D01*
X146496822Y-127240628D01*
X146420112Y-127225628D01*
X146337033Y-127220490D01*
X146266034Y-127226086D01*
X146202611Y-127242273D01*
X146145455Y-127268651D01*
X146093810Y-127304666D01*
X146050885Y-127347629D01*
X146015930Y-127398100D01*
X145990372Y-127453947D01*
X145974843Y-127514550D01*
X145969524Y-127580977D01*
X145973792Y-127653915D01*
X145985779Y-127715791D01*
X146004557Y-127768281D01*
X146044426Y-127841319D01*
X146092943Y-127904751D01*
X146200562Y-128021988D01*
X146496325Y-128333474D01*
X145932811Y-128333474D01*
X145932811Y-128487500D01*
X146734309Y-128487500D01*
X146734309Y-128333474D01*
X146426334Y-128021988D01*
X146295969Y-127893379D01*
X146235093Y-127826720D01*
X146185679Y-127756908D01*
X146160835Y-127706918D01*
X146146025Y-127654418D01*
X146141028Y-127598532D01*
X146147916Y-127539038D01*
X146167937Y-127487124D01*
X146201402Y-127440995D01*
X146245481Y-127405799D01*
X146300155Y-127384035D01*
X146368555Y-127376271D01*
X146441630Y-127384126D01*
X146518230Y-127408633D01*
X146591492Y-127446644D01*
X146660807Y-127497018D01*
X146755299Y-127384972D01*
G37*
G36*
X144843106Y-128057021D02*
G01*
X144843106Y-128210971D01*
X145000643Y-128210971D01*
X145000643Y-128487500D01*
X145172147Y-128487500D01*
X145172147Y-128210971D01*
X145690095Y-128210971D01*
X145690095Y-128057021D01*
X145628809Y-127875742D01*
X145557135Y-127683406D01*
X145474625Y-127484495D01*
X145364641Y-127244990D01*
X145187870Y-127244990D01*
X145187870Y-127262469D01*
X145297783Y-127498218D01*
X145379525Y-127692107D01*
X145448315Y-127879729D01*
X145502867Y-128057021D01*
X145172147Y-128057021D01*
X145172147Y-127603722D01*
X145000643Y-127603722D01*
X145000643Y-128057021D01*
X144843106Y-128057021D01*
G37*
G36*
X144272609Y-127222952D02*
G01*
X144343866Y-127239689D01*
X144403545Y-127265980D01*
X144457364Y-127302889D01*
X144503265Y-127348150D01*
X144541848Y-127402527D01*
X144572195Y-127462497D01*
X144596823Y-127530685D01*
X144615350Y-127608149D01*
X144631502Y-127729153D01*
X144637179Y-127866283D01*
X144631534Y-128001893D01*
X144615350Y-128123501D01*
X144596800Y-128201531D01*
X144572165Y-128270011D01*
X144541848Y-128330039D01*
X144503269Y-128384368D01*
X144457369Y-128429605D01*
X144403545Y-128466510D01*
X144343866Y-128492801D01*
X144272609Y-128509537D01*
X144187390Y-128515511D01*
X144102221Y-128509522D01*
X144031323Y-128492772D01*
X143972228Y-128466510D01*
X143919054Y-128429589D01*
X143874052Y-128384359D01*
X143836597Y-128330039D01*
X143807323Y-128270096D01*
X143783546Y-128201620D01*
X143765690Y-128123501D01*
X143750131Y-128001921D01*
X143744700Y-127866283D01*
X143744770Y-127864528D01*
X143916205Y-127864528D01*
X143918485Y-127967675D01*
X143924982Y-128059617D01*
X143938585Y-128146360D01*
X143959939Y-128217153D01*
X143980988Y-128259429D01*
X144007750Y-128294089D01*
X144040463Y-128322101D01*
X144078411Y-128342067D01*
X144126532Y-128355009D01*
X144187390Y-128359730D01*
X144244686Y-128355350D01*
X144291575Y-128343167D01*
X144333009Y-128322895D01*
X144365917Y-128296761D01*
X143942461Y-127563498D01*
X143929591Y-127626851D01*
X143921471Y-127701724D01*
X143916205Y-127864528D01*
X143744770Y-127864528D01*
X143750161Y-127729124D01*
X143765690Y-127608149D01*
X143794697Y-127495404D01*
X143820827Y-127437484D01*
X144008941Y-127437484D01*
X144434152Y-128172503D01*
X144449881Y-128107355D01*
X144459569Y-128031681D01*
X144465675Y-127864528D01*
X144463169Y-127761433D01*
X144456058Y-127670278D01*
X144441335Y-127584378D01*
X144418429Y-127513657D01*
X144396209Y-127471463D01*
X144368316Y-127437084D01*
X144334470Y-127409549D01*
X144295451Y-127389929D01*
X144247155Y-127377318D01*
X144187390Y-127372760D01*
X144128729Y-127377214D01*
X144082442Y-127389399D01*
X144041859Y-127409925D01*
X144008941Y-127437484D01*
X143820827Y-127437484D01*
X143836597Y-127402527D01*
X143874056Y-127348159D01*
X143919059Y-127302905D01*
X143972228Y-127265980D01*
X144031323Y-127239717D01*
X144102221Y-127222968D01*
X144187390Y-127216979D01*
X144272609Y-127222952D01*
G37*
G36*
X142464791Y-127525030D02*
G01*
X142284586Y-127525030D01*
X142195285Y-127865443D01*
X142152098Y-128007170D01*
X142111326Y-128125257D01*
X142067248Y-128236315D01*
X142022025Y-128335229D01*
X141976819Y-128236312D01*
X141932800Y-128125257D01*
X141892028Y-128007170D01*
X141848842Y-127865443D01*
X141759540Y-127525030D01*
X141579335Y-127525030D01*
X141665965Y-127852239D01*
X141708194Y-127989848D01*
X141748168Y-128105107D01*
X141790606Y-128213505D01*
X141832202Y-128308134D01*
X141925778Y-128487500D01*
X142118272Y-128487500D01*
X142211084Y-128308134D01*
X142253317Y-128213466D01*
X142295959Y-128105107D01*
X142335893Y-127989849D01*
X142378162Y-127852239D01*
X142464791Y-127525030D01*
G37*
G36*
X141023578Y-127501755D02*
G01*
X141112602Y-127516253D01*
X141201156Y-127541218D01*
X141292884Y-127579221D01*
X141210604Y-127710502D01*
X141139864Y-127680412D01*
X141081995Y-127664096D01*
X141024879Y-127655564D01*
X140967354Y-127652723D01*
X140881325Y-127659432D01*
X140831723Y-127675468D01*
X140796201Y-127704025D01*
X140775776Y-127743780D01*
X140766231Y-127792014D01*
X140762648Y-127855750D01*
X140762648Y-127880251D01*
X140903545Y-127881167D01*
X140981436Y-127888536D01*
X141061006Y-127902156D01*
X141138070Y-127923961D01*
X141208009Y-127955508D01*
X141268906Y-127998917D01*
X141316468Y-128055266D01*
X141338608Y-128099035D01*
X141352615Y-128151459D01*
X141357608Y-128214482D01*
X141351609Y-128281717D01*
X141334720Y-128337584D01*
X141307767Y-128384307D01*
X141271485Y-128425014D01*
X141229950Y-128457782D01*
X141182593Y-128483149D01*
X141106782Y-128507635D01*
X141033834Y-128515511D01*
X140955922Y-128511279D01*
X140893866Y-128499747D01*
X140844851Y-128482309D01*
X140778609Y-128444489D01*
X140729370Y-128401786D01*
X140696378Y-128447429D01*
X140649762Y-128479638D01*
X140613088Y-128492318D01*
X140562722Y-128500172D01*
X140494897Y-128501467D01*
X140494897Y-128359730D01*
X140544681Y-128349656D01*
X140570993Y-128330879D01*
X140585596Y-128301787D01*
X140591144Y-128258217D01*
X140591144Y-128018477D01*
X140762648Y-128018477D01*
X140762648Y-128214482D01*
X140798606Y-128265260D01*
X140850957Y-128313400D01*
X140892411Y-128336883D01*
X140946919Y-128352283D01*
X141018111Y-128357974D01*
X141064661Y-128353430D01*
X141107218Y-128340071D01*
X141146720Y-128317751D01*
X141178397Y-128287315D01*
X141197086Y-128250681D01*
X141203582Y-128205781D01*
X141198510Y-128159712D01*
X141184353Y-128123103D01*
X141161603Y-128093811D01*
X141114628Y-128059821D01*
X141053144Y-128036032D01*
X140984992Y-128022358D01*
X140909651Y-128015882D01*
X140762648Y-128018477D01*
X140591144Y-128018477D01*
X140591144Y-127764770D01*
X140595568Y-127703718D01*
X140607656Y-127655569D01*
X140626177Y-127617766D01*
X140666521Y-127570423D01*
X140716242Y-127538158D01*
X140772528Y-127517109D01*
X140830883Y-127504880D01*
X140937587Y-127497018D01*
X141023578Y-127501755D01*
G37*
G36*
X139805903Y-128515511D02*
G01*
X139895366Y-128510298D01*
X139973340Y-128494048D01*
X140041571Y-128467680D01*
X140101498Y-128431491D01*
X140154178Y-128385146D01*
X140197613Y-128330781D01*
X140232246Y-128267581D01*
X140258044Y-128194203D01*
X140274404Y-128108938D01*
X140280192Y-128009776D01*
X140271597Y-127888847D01*
X140247517Y-127787845D01*
X140209676Y-127703351D01*
X140158605Y-127632650D01*
X140107359Y-127584777D01*
X140049068Y-127547414D01*
X139982731Y-127520092D01*
X139906937Y-127503008D01*
X139819947Y-127497018D01*
X139744636Y-127503698D01*
X139675967Y-127523249D01*
X139612569Y-127555637D01*
X139556461Y-127599491D01*
X139510291Y-127653064D01*
X139473427Y-127717524D01*
X139606387Y-127778737D01*
X139644334Y-127724185D01*
X139693933Y-127684246D01*
X139752891Y-127659435D01*
X139819947Y-127650968D01*
X139887509Y-127657313D01*
X139944816Y-127675369D01*
X139993892Y-127704562D01*
X140036102Y-127745536D01*
X140068514Y-127794332D01*
X140092794Y-127853235D01*
X140108368Y-127924238D01*
X140113954Y-128009776D01*
X140108236Y-128093221D01*
X140092233Y-128162874D01*
X140067150Y-128221063D01*
X140033430Y-128269665D01*
X139990100Y-128309815D01*
X139938899Y-128338756D01*
X139878248Y-128356840D01*
X139805903Y-128363241D01*
X139726518Y-128355594D01*
X139657220Y-128333550D01*
X139592859Y-128299237D01*
X139531206Y-128254782D01*
X139443660Y-128378964D01*
X139518944Y-128434839D01*
X139607303Y-128477882D01*
X139703231Y-128505122D01*
X139805903Y-128515511D01*
G37*
G36*
X160542633Y-129322991D02*
G01*
X160615160Y-129339975D01*
X160677141Y-129366896D01*
X160733366Y-129404445D01*
X160781891Y-129450579D01*
X160823305Y-129506038D01*
X160856588Y-129567298D01*
X160883794Y-129635831D01*
X160904668Y-129712500D01*
X160923464Y-129832488D01*
X160930009Y-129966283D01*
X160923465Y-130100011D01*
X160904668Y-130219990D01*
X160883797Y-130296660D01*
X160856592Y-130365220D01*
X160823305Y-130426528D01*
X160781899Y-130481945D01*
X160733373Y-130528081D01*
X160677141Y-130565670D01*
X160615165Y-130592548D01*
X160542638Y-130609508D01*
X160457475Y-130615511D01*
X160372364Y-130609509D01*
X160299861Y-130592551D01*
X160237885Y-130565670D01*
X160181658Y-130528078D01*
X160133159Y-130481942D01*
X160091798Y-130426528D01*
X160058475Y-130365213D01*
X160031270Y-130296654D01*
X160010434Y-130219990D01*
X159991580Y-130100008D01*
X159985018Y-129966283D01*
X160158278Y-129966283D01*
X160161628Y-130063066D01*
X160171406Y-130153510D01*
X160189823Y-130239380D01*
X160216896Y-130311887D01*
X160256257Y-130374056D01*
X160307876Y-130420346D01*
X160348713Y-130441522D01*
X160397937Y-130454937D01*
X160457475Y-130459730D01*
X160517062Y-130454919D01*
X160566002Y-130441489D01*
X160606311Y-130420346D01*
X160657382Y-130374163D01*
X160697291Y-130311887D01*
X160725001Y-130239327D01*
X160743621Y-130153510D01*
X160753398Y-130063066D01*
X160756749Y-129966283D01*
X160753398Y-129869500D01*
X160743621Y-129779056D01*
X160724995Y-129693183D01*
X160697291Y-129620679D01*
X160657377Y-129558339D01*
X160606311Y-129512144D01*
X160566002Y-129491001D01*
X160517062Y-129477571D01*
X160457475Y-129472760D01*
X160397937Y-129477553D01*
X160348713Y-129490968D01*
X160307876Y-129512144D01*
X160272054Y-129541373D01*
X160241815Y-129577273D01*
X160216896Y-129620679D01*
X160189828Y-129693130D01*
X160171406Y-129779056D01*
X160161628Y-129869500D01*
X160158278Y-129966283D01*
X159985018Y-129966283D01*
X159991581Y-129832490D01*
X160010434Y-129712500D01*
X160031272Y-129635837D01*
X160058478Y-129567304D01*
X160091798Y-129506038D01*
X160133166Y-129450582D01*
X160181666Y-129404448D01*
X160237885Y-129366896D01*
X160299866Y-129339973D01*
X160372369Y-129322989D01*
X160457475Y-129316979D01*
X160542633Y-129322991D01*
G37*
G36*
X159500806Y-130615511D02*
G01*
X159576442Y-130604857D01*
X159643459Y-130577043D01*
X159681762Y-130548393D01*
X159715292Y-130508563D01*
X159744133Y-130455379D01*
X159763268Y-130397525D01*
X159776095Y-130322669D01*
X159780846Y-130227012D01*
X159780846Y-129625030D01*
X159607586Y-129625030D01*
X159607586Y-130137787D01*
X159604558Y-130224520D01*
X159596214Y-130296164D01*
X159578517Y-130360093D01*
X159551563Y-130405539D01*
X159526686Y-130427163D01*
X159493716Y-130440789D01*
X159450050Y-130445762D01*
X159388900Y-130439236D01*
X159323196Y-130418667D01*
X159257390Y-130383783D01*
X159175276Y-130323259D01*
X159175276Y-129625030D01*
X159007283Y-129625030D01*
X159007283Y-130358217D01*
X159001323Y-130401632D01*
X158985454Y-130430879D01*
X158957691Y-130449731D01*
X158907525Y-130459730D01*
X158907525Y-130601467D01*
X158984573Y-130599980D01*
X159039342Y-130589521D01*
X159077350Y-130572616D01*
X159109681Y-130546590D01*
X159135834Y-130512908D01*
X159156042Y-130470263D01*
X159234306Y-130525635D01*
X159319685Y-130573532D01*
X159379816Y-130597863D01*
X159439950Y-130611698D01*
X159500806Y-130615511D01*
G37*
G36*
X158213341Y-130587500D02*
G01*
X158274875Y-130581833D01*
X158321280Y-130566508D01*
X158356071Y-130542925D01*
X158384282Y-130510746D01*
X158405838Y-130472599D01*
X158420795Y-130427444D01*
X158433137Y-130355290D01*
X158437358Y-130277769D01*
X158437358Y-129778979D01*
X158706864Y-129778979D01*
X158706864Y-129625030D01*
X158437358Y-129625030D01*
X158437358Y-129399258D01*
X158265853Y-129399258D01*
X158265853Y-129625030D01*
X157905366Y-129625030D01*
X157905366Y-129778979D01*
X158265853Y-129778979D01*
X158265853Y-130277769D01*
X158257152Y-130348599D01*
X158242997Y-130381072D01*
X158217768Y-130407218D01*
X158182095Y-130423494D01*
X158124116Y-130429963D01*
X157910633Y-130429963D01*
X157910633Y-130587500D01*
X158213341Y-130587500D01*
G37*
G36*
X157198235Y-129605432D02*
G01*
X157268045Y-129630297D01*
X157331057Y-129667335D01*
X157380931Y-129708989D01*
X157398410Y-129610986D01*
X157708217Y-129610986D01*
X157708217Y-129712500D01*
X157545413Y-129740511D01*
X157545413Y-130932264D01*
X157380931Y-130932264D01*
X157380931Y-130521020D01*
X157343635Y-130546510D01*
X157299568Y-130568265D01*
X157251013Y-130582486D01*
X157193704Y-130587500D01*
X157115337Y-130579937D01*
X157044417Y-130557809D01*
X156979304Y-130521020D01*
X156921792Y-130472152D01*
X156871410Y-130411948D01*
X156827950Y-130338982D01*
X156795204Y-130260219D01*
X156772316Y-130173686D01*
X156759715Y-130078253D01*
X156759104Y-129982373D01*
X156928861Y-129982373D01*
X156929463Y-130078253D01*
X156943904Y-130173191D01*
X156972282Y-130257619D01*
X157014614Y-130332033D01*
X157065934Y-130387144D01*
X157106604Y-130413869D01*
X157151095Y-130429797D01*
X157200649Y-130435229D01*
X157258797Y-130426215D01*
X157310101Y-130399356D01*
X157351935Y-130358777D01*
X157380931Y-130309215D01*
X157380931Y-129913771D01*
X157338632Y-129848274D01*
X157282089Y-129795618D01*
X157237662Y-129769755D01*
X157190451Y-129754401D01*
X157139436Y-129749212D01*
X157082897Y-129755413D01*
X157037187Y-129772839D01*
X156999895Y-129800998D01*
X156969687Y-129841109D01*
X156942964Y-129904536D01*
X156928861Y-129982373D01*
X156759104Y-129982373D01*
X156759079Y-129978497D01*
X156770942Y-129893231D01*
X156793832Y-129820119D01*
X156829026Y-129752524D01*
X156872388Y-129697985D01*
X156924197Y-129654797D01*
X156983624Y-129622960D01*
X157049043Y-129603653D01*
X157121957Y-129597018D01*
X157198235Y-129605432D01*
G37*
G36*
X156247492Y-130615511D02*
G01*
X156323127Y-130604857D01*
X156390145Y-130577043D01*
X156428448Y-130548393D01*
X156461977Y-130508563D01*
X156490819Y-130455379D01*
X156509954Y-130397525D01*
X156522780Y-130322669D01*
X156527531Y-130227012D01*
X156527531Y-129625030D01*
X156354272Y-129625030D01*
X156354272Y-130137787D01*
X156351244Y-130224520D01*
X156342899Y-130296164D01*
X156325202Y-130360093D01*
X156298248Y-130405539D01*
X156273371Y-130427163D01*
X156240401Y-130440789D01*
X156196735Y-130445762D01*
X156135585Y-130439236D01*
X156069881Y-130418667D01*
X156004076Y-130383783D01*
X155921962Y-130323259D01*
X155921962Y-129625030D01*
X155753968Y-129625030D01*
X155753968Y-130358217D01*
X155748008Y-130401632D01*
X155732139Y-130430879D01*
X155704376Y-130449731D01*
X155654211Y-130459730D01*
X155654211Y-130601467D01*
X155731258Y-130599980D01*
X155786028Y-130589521D01*
X155824036Y-130572616D01*
X155856366Y-130546590D01*
X155882519Y-130512908D01*
X155902728Y-130470263D01*
X155980991Y-130525635D01*
X156066370Y-130573532D01*
X156126501Y-130597863D01*
X156186635Y-130611698D01*
X156247492Y-130615511D01*
G37*
G36*
X154960027Y-130587500D02*
G01*
X155021561Y-130581833D01*
X155067966Y-130566508D01*
X155102756Y-130542925D01*
X155130967Y-130510746D01*
X155152523Y-130472599D01*
X155167480Y-130427444D01*
X155179822Y-130355290D01*
X155184043Y-130277769D01*
X155184043Y-129778979D01*
X155453550Y-129778979D01*
X155453550Y-129625030D01*
X155184043Y-129625030D01*
X155184043Y-129399258D01*
X155012539Y-129399258D01*
X155012539Y-129625030D01*
X154652052Y-129625030D01*
X154652052Y-129778979D01*
X155012539Y-129778979D01*
X155012539Y-130277769D01*
X155003838Y-130348599D01*
X154989683Y-130381072D01*
X154964453Y-130407218D01*
X154928780Y-130423494D01*
X154870802Y-130429963D01*
X154657318Y-130429963D01*
X154657318Y-130587500D01*
X154960027Y-130587500D01*
G37*
G36*
X154348122Y-130464996D02*
G01*
X154241342Y-130347760D01*
X154169103Y-130391202D01*
X154091743Y-130427368D01*
X154011729Y-130451856D01*
X153935122Y-130459730D01*
X153866602Y-130455320D01*
X153816046Y-130443663D01*
X153779418Y-130426528D01*
X153749311Y-130401133D01*
X153732501Y-130372971D01*
X153726905Y-130340738D01*
X153731518Y-130308825D01*
X153745189Y-130280625D01*
X153768885Y-130255024D01*
X153815081Y-130223085D01*
X153877420Y-130192895D01*
X154018241Y-130139543D01*
X154091091Y-130111126D01*
X154159139Y-130079169D01*
X154220429Y-130040351D01*
X154267674Y-129995134D01*
X154290702Y-129959840D01*
X154304755Y-129919179D01*
X154309654Y-129871715D01*
X154300730Y-129808617D01*
X154274620Y-129754479D01*
X154234732Y-129708024D01*
X154183640Y-129668765D01*
X154125414Y-129638207D01*
X154061976Y-129616253D01*
X153996410Y-129603063D01*
X153933367Y-129598774D01*
X153861754Y-129603044D01*
X153798889Y-129615227D01*
X153743545Y-129634647D01*
X153664247Y-129677233D01*
X153583336Y-129737000D01*
X153688361Y-129848970D01*
X153748618Y-129807674D01*
X153804758Y-129778140D01*
X153864214Y-129759302D01*
X153933367Y-129752723D01*
X154007467Y-129761022D01*
X154072509Y-129785162D01*
X154109339Y-129810556D01*
X154130023Y-129837929D01*
X154138149Y-129868281D01*
X154134870Y-129891954D01*
X154122454Y-129914078D01*
X154098765Y-129935676D01*
X154053815Y-129962768D01*
X153991146Y-129991623D01*
X153849409Y-130048486D01*
X153775899Y-130080663D01*
X153707671Y-130116798D01*
X153646337Y-130159821D01*
X153598296Y-130209534D01*
X153574661Y-130247586D01*
X153560345Y-130290313D01*
X153555401Y-130338982D01*
X153561748Y-130398810D01*
X153580113Y-130450994D01*
X153610500Y-130497216D01*
X153654243Y-130538498D01*
X153704829Y-130569487D01*
X153766890Y-130593006D01*
X153842736Y-130608250D01*
X153935122Y-130613756D01*
X154012487Y-130608992D01*
X154088146Y-130594743D01*
X154162650Y-130570860D01*
X154266312Y-130521693D01*
X154348122Y-130464996D01*
G37*
G36*
X150305521Y-130246246D02*
G01*
X150311028Y-130317339D01*
X150326944Y-130380792D01*
X150352843Y-130437901D01*
X150388619Y-130489213D01*
X150432950Y-130532467D01*
X150486719Y-130568265D01*
X150546139Y-130593895D01*
X150614130Y-130609899D01*
X150692341Y-130615511D01*
X150783180Y-130611380D01*
X150858843Y-130599920D01*
X150921547Y-130582309D01*
X151012678Y-130541997D01*
X151107019Y-130484231D01*
X151019550Y-130354782D01*
X150957496Y-130395190D01*
X150888346Y-130430039D01*
X150813237Y-130453330D01*
X150725543Y-130461485D01*
X150645242Y-130453349D01*
X150584675Y-130431231D01*
X150539155Y-130396761D01*
X150504278Y-130350645D01*
X150483898Y-130300983D01*
X150477025Y-130246246D01*
X150485203Y-130187788D01*
X150509250Y-130136858D01*
X150550527Y-130091381D01*
X150602896Y-130058170D01*
X150669296Y-130036953D01*
X150753554Y-130029252D01*
X150848046Y-130029252D01*
X150848046Y-129878737D01*
X150750043Y-129878737D01*
X150668247Y-129870896D01*
X150607854Y-129849833D01*
X150563655Y-129817524D01*
X150530481Y-129773441D01*
X150510328Y-129721672D01*
X150503282Y-129659987D01*
X150510840Y-129601332D01*
X150531917Y-129556067D01*
X150566327Y-129520922D01*
X150610318Y-129495454D01*
X150660014Y-129479907D01*
X150716841Y-129474515D01*
X150781332Y-129482084D01*
X150850717Y-129506038D01*
X150916204Y-129543401D01*
X150975815Y-129593507D01*
X151089541Y-129484972D01*
X151021552Y-129425213D01*
X150949056Y-129379591D01*
X150871330Y-129347069D01*
X150787335Y-129327269D01*
X150695775Y-129320490D01*
X150626748Y-129325188D01*
X150564691Y-129338770D01*
X150508548Y-129360790D01*
X150457097Y-129391661D01*
X150414214Y-129429422D01*
X150379023Y-129474515D01*
X150353178Y-129525389D01*
X150337294Y-129582666D01*
X150331777Y-129647775D01*
X150336604Y-129708512D01*
X150350878Y-129765696D01*
X150374672Y-129820119D01*
X150407387Y-129869480D01*
X150448786Y-129912187D01*
X150499771Y-129948728D01*
X150448378Y-129977665D01*
X150402470Y-130016139D01*
X150361544Y-130065125D01*
X150330509Y-130120426D01*
X150311876Y-130180352D01*
X150305521Y-130246246D01*
G37*
G36*
X149613093Y-130620778D02*
G01*
X149651024Y-130615987D01*
X149684787Y-130601884D01*
X149715522Y-130577882D01*
X149739481Y-130547154D01*
X149753560Y-130513416D01*
X149758341Y-130475529D01*
X149753491Y-130436462D01*
X149739351Y-130402461D01*
X149715522Y-130372260D01*
X149684851Y-130348809D01*
X149651084Y-130334985D01*
X149613093Y-130330281D01*
X149574019Y-130335049D01*
X149540039Y-130348929D01*
X149509900Y-130372260D01*
X149486527Y-130402407D01*
X149472621Y-130436411D01*
X149467844Y-130475529D01*
X149472553Y-130513465D01*
X149486399Y-130547208D01*
X149509900Y-130577882D01*
X149540105Y-130601761D01*
X149574081Y-130615922D01*
X149613093Y-130620778D01*
G37*
G36*
X148136645Y-130246246D02*
G01*
X148142152Y-130317339D01*
X148158067Y-130380792D01*
X148183967Y-130437901D01*
X148219743Y-130489213D01*
X148264074Y-130532467D01*
X148317842Y-130568265D01*
X148377262Y-130593895D01*
X148445253Y-130609899D01*
X148523464Y-130615511D01*
X148614303Y-130611380D01*
X148689966Y-130599920D01*
X148752671Y-130582309D01*
X148843801Y-130541997D01*
X148938143Y-130484231D01*
X148850673Y-130354782D01*
X148788619Y-130395190D01*
X148719469Y-130430039D01*
X148644361Y-130453330D01*
X148556666Y-130461485D01*
X148476365Y-130453349D01*
X148415799Y-130431231D01*
X148370278Y-130396761D01*
X148335402Y-130350645D01*
X148315022Y-130300983D01*
X148308149Y-130246246D01*
X148316326Y-130187788D01*
X148340373Y-130136858D01*
X148381651Y-130091381D01*
X148434020Y-130058170D01*
X148500419Y-130036953D01*
X148584678Y-130029252D01*
X148679169Y-130029252D01*
X148679169Y-129878737D01*
X148581167Y-129878737D01*
X148499371Y-129870896D01*
X148438977Y-129849833D01*
X148394779Y-129817524D01*
X148361604Y-129773441D01*
X148341452Y-129721672D01*
X148334405Y-129659987D01*
X148341963Y-129601332D01*
X148363041Y-129556067D01*
X148397450Y-129520922D01*
X148441441Y-129495454D01*
X148491137Y-129479907D01*
X148547965Y-129474515D01*
X148612456Y-129482084D01*
X148681840Y-129506038D01*
X148747327Y-129543401D01*
X148806939Y-129593507D01*
X148920664Y-129484972D01*
X148852675Y-129425213D01*
X148780180Y-129379591D01*
X148702454Y-129347069D01*
X148618459Y-129327269D01*
X148526899Y-129320490D01*
X148457872Y-129325188D01*
X148395815Y-129338770D01*
X148339672Y-129360790D01*
X148288221Y-129391661D01*
X148245338Y-129429422D01*
X148210146Y-129474515D01*
X148184301Y-129525389D01*
X148168417Y-129582666D01*
X148162901Y-129647775D01*
X148167727Y-129708512D01*
X148182002Y-129765696D01*
X148205796Y-129820119D01*
X148238511Y-129869480D01*
X148279909Y-129912187D01*
X148330894Y-129948728D01*
X148279501Y-129977665D01*
X148233593Y-130016139D01*
X148192668Y-130065125D01*
X148161632Y-130120426D01*
X148143000Y-130180352D01*
X148136645Y-130246246D01*
G37*
G36*
X146802544Y-129625030D02*
G01*
X146622339Y-129625030D01*
X146533038Y-129965443D01*
X146489851Y-130107170D01*
X146449079Y-130225257D01*
X146405001Y-130336315D01*
X146359778Y-130435229D01*
X146314572Y-130336312D01*
X146270553Y-130225257D01*
X146229781Y-130107170D01*
X146186594Y-129965443D01*
X146097293Y-129625030D01*
X145917088Y-129625030D01*
X146003718Y-129952239D01*
X146045947Y-130089848D01*
X146085921Y-130205107D01*
X146128359Y-130313505D01*
X146169955Y-130408134D01*
X146263531Y-130587500D01*
X146456025Y-130587500D01*
X146548837Y-130408134D01*
X146591070Y-130313466D01*
X146633712Y-130205107D01*
X146673646Y-130089849D01*
X146715915Y-129952239D01*
X146802544Y-129625030D01*
G37*
G36*
X145102080Y-129686243D02*
G01*
X145145007Y-129655117D01*
X145194053Y-129631136D01*
X145247363Y-129616148D01*
X145306862Y-129610986D01*
X145377581Y-129617428D01*
X145444299Y-129636565D01*
X145508134Y-129668765D01*
X145564860Y-129712218D01*
X145614349Y-129767929D01*
X145656893Y-129837598D01*
X145686923Y-129913677D01*
X145706037Y-130003533D01*
X145712840Y-130109776D01*
X145705573Y-130208489D01*
X145684632Y-130296258D01*
X145650710Y-130374856D01*
X145604007Y-130446571D01*
X145549063Y-130505655D01*
X145485389Y-130553382D01*
X145414331Y-130588978D01*
X145340070Y-130610142D01*
X145261372Y-130617267D01*
X145196114Y-130612803D01*
X145135434Y-130599712D01*
X145077789Y-130579738D01*
X145026899Y-130555977D01*
X144978707Y-130581111D01*
X144912818Y-130597112D01*
X144823872Y-130601467D01*
X144823872Y-130459730D01*
X144876102Y-130450280D01*
X144909208Y-130430458D01*
X144928748Y-130400904D01*
X144935842Y-130358217D01*
X144935842Y-129838514D01*
X145102080Y-129838514D01*
X145102080Y-130436985D01*
X145173955Y-130457618D01*
X145261372Y-130464996D01*
X145313712Y-130460057D01*
X145361800Y-130445523D01*
X145406620Y-130421262D01*
X145446061Y-130388717D01*
X145480125Y-130347694D01*
X145508973Y-130297003D01*
X145529394Y-130242119D01*
X145542146Y-130180113D01*
X145546602Y-130109776D01*
X145538226Y-130004171D01*
X145515343Y-129921462D01*
X145480122Y-129856908D01*
X145443459Y-129817750D01*
X145397930Y-129789391D01*
X145341653Y-129771456D01*
X145271829Y-129765012D01*
X145223672Y-129770012D01*
X145176498Y-129785162D01*
X145133995Y-129809038D01*
X145102080Y-129838514D01*
X144935842Y-129838514D01*
X144935842Y-129275000D01*
X145102080Y-129275000D01*
X145102080Y-129686243D01*
G37*
G36*
X144143656Y-130615511D02*
G01*
X144233119Y-130610298D01*
X144311093Y-130594048D01*
X144379324Y-130567680D01*
X144439251Y-130531491D01*
X144491931Y-130485146D01*
X144535366Y-130430781D01*
X144569999Y-130367581D01*
X144595797Y-130294203D01*
X144612157Y-130208938D01*
X144617945Y-130109776D01*
X144609350Y-129988847D01*
X144585270Y-129887845D01*
X144547429Y-129803351D01*
X144496358Y-129732650D01*
X144445112Y-129684777D01*
X144386821Y-129647414D01*
X144320484Y-129620092D01*
X144244690Y-129603008D01*
X144157700Y-129597018D01*
X144082389Y-129603698D01*
X144013720Y-129623249D01*
X143950322Y-129655637D01*
X143894214Y-129699491D01*
X143848044Y-129753064D01*
X143811180Y-129817524D01*
X143944140Y-129878737D01*
X143982087Y-129824185D01*
X144031686Y-129784246D01*
X144090644Y-129759435D01*
X144157700Y-129750968D01*
X144225262Y-129757313D01*
X144282569Y-129775369D01*
X144331644Y-129804562D01*
X144373855Y-129845536D01*
X144406267Y-129894332D01*
X144430547Y-129953235D01*
X144446121Y-130024238D01*
X144451707Y-130109776D01*
X144445989Y-130193221D01*
X144429986Y-130262874D01*
X144404903Y-130321063D01*
X144371183Y-130369665D01*
X144327853Y-130409815D01*
X144276652Y-130438756D01*
X144216001Y-130456840D01*
X144143656Y-130463241D01*
X144064271Y-130455594D01*
X143994973Y-130433550D01*
X143930612Y-130399237D01*
X143868959Y-130354782D01*
X143781413Y-130478964D01*
X143856697Y-130534839D01*
X143945056Y-130577882D01*
X144040984Y-130605122D01*
X144143656Y-130615511D01*
G37*
G36*
X142417546Y-129484972D02*
G01*
X142329851Y-129417547D01*
X142230318Y-129365140D01*
X142159069Y-129340628D01*
X142082359Y-129325628D01*
X141999280Y-129320490D01*
X141928281Y-129326086D01*
X141864858Y-129342273D01*
X141807702Y-129368651D01*
X141756057Y-129404666D01*
X141713132Y-129447629D01*
X141678177Y-129498100D01*
X141652619Y-129553947D01*
X141637090Y-129614550D01*
X141631771Y-129680977D01*
X141636039Y-129753915D01*
X141648026Y-129815791D01*
X141666804Y-129868281D01*
X141706673Y-129941319D01*
X141755190Y-130004751D01*
X141862809Y-130121988D01*
X142158572Y-130433474D01*
X141595058Y-130433474D01*
X141595058Y-130587500D01*
X142396556Y-130587500D01*
X142396556Y-130433474D01*
X142088581Y-130121988D01*
X141958217Y-129993379D01*
X141897340Y-129926720D01*
X141847926Y-129856908D01*
X141823082Y-129806918D01*
X141808272Y-129754418D01*
X141803275Y-129698532D01*
X141810163Y-129639038D01*
X141830185Y-129587124D01*
X141863649Y-129540995D01*
X141907728Y-129505799D01*
X141962402Y-129484035D01*
X142030802Y-129476271D01*
X142103877Y-129484126D01*
X142180478Y-129508633D01*
X142253739Y-129546644D01*
X142323054Y-129597018D01*
X142417546Y-129484972D01*
G37*
G36*
X140937587Y-130620778D02*
G01*
X140975518Y-130615987D01*
X141009281Y-130601884D01*
X141040016Y-130577882D01*
X141063976Y-130547154D01*
X141078054Y-130513416D01*
X141082835Y-130475529D01*
X141077985Y-130436462D01*
X141063845Y-130402461D01*
X141040016Y-130372260D01*
X141009346Y-130348809D01*
X140975578Y-130334985D01*
X140937587Y-130330281D01*
X140898513Y-130335049D01*
X140864533Y-130348929D01*
X140834394Y-130372260D01*
X140811022Y-130402407D01*
X140797115Y-130436411D01*
X140792339Y-130475529D01*
X140797047Y-130513465D01*
X140810893Y-130547208D01*
X140834394Y-130577882D01*
X140864599Y-130601761D01*
X140898575Y-130615922D01*
X140937587Y-130620778D01*
G37*
G36*
X139965195Y-130587500D02*
G01*
X139936863Y-130411203D01*
X139894364Y-130241896D01*
X139841047Y-130073691D01*
X139777967Y-129894537D01*
X139639665Y-129499016D01*
X140091209Y-129499016D01*
X140091209Y-129737000D01*
X140262637Y-129737000D01*
X140262637Y-129344990D01*
X139433203Y-129344990D01*
X139433203Y-129457037D01*
X139507533Y-129676020D01*
X139577612Y-129868281D01*
X139644886Y-130054378D01*
X139701794Y-130228768D01*
X139747356Y-130404430D01*
X139777891Y-130587500D01*
X139965195Y-130587500D01*
G37*
G36*
X138854701Y-129601755D02*
G01*
X138943726Y-129616253D01*
X139032279Y-129641218D01*
X139124007Y-129679221D01*
X139041728Y-129810502D01*
X138970987Y-129780412D01*
X138913119Y-129764096D01*
X138856002Y-129755564D01*
X138798477Y-129752723D01*
X138712449Y-129759432D01*
X138662846Y-129775468D01*
X138627325Y-129804025D01*
X138606899Y-129843780D01*
X138597355Y-129892014D01*
X138593771Y-129955750D01*
X138593771Y-129980251D01*
X138734669Y-129981167D01*
X138812559Y-129988536D01*
X138892129Y-130002156D01*
X138969193Y-130023961D01*
X139039133Y-130055508D01*
X139100030Y-130098917D01*
X139147592Y-130155266D01*
X139169732Y-130199035D01*
X139183738Y-130251459D01*
X139188732Y-130314482D01*
X139182733Y-130381717D01*
X139165844Y-130437584D01*
X139138891Y-130484307D01*
X139102608Y-130525014D01*
X139061074Y-130557782D01*
X139013716Y-130583149D01*
X138937906Y-130607635D01*
X138864957Y-130615511D01*
X138787046Y-130611279D01*
X138724989Y-130599747D01*
X138675974Y-130582309D01*
X138609732Y-130544489D01*
X138560493Y-130501786D01*
X138527502Y-130547429D01*
X138480885Y-130579638D01*
X138444212Y-130592318D01*
X138393845Y-130600172D01*
X138326020Y-130601467D01*
X138326020Y-130459730D01*
X138375805Y-130449656D01*
X138402117Y-130430879D01*
X138416719Y-130401787D01*
X138422267Y-130358217D01*
X138422267Y-130118477D01*
X138593771Y-130118477D01*
X138593771Y-130314482D01*
X138629730Y-130365260D01*
X138682080Y-130413400D01*
X138723535Y-130436883D01*
X138778043Y-130452283D01*
X138849234Y-130457974D01*
X138895784Y-130453430D01*
X138938342Y-130440071D01*
X138977843Y-130417751D01*
X139009521Y-130387315D01*
X139028210Y-130350681D01*
X139034706Y-130305781D01*
X139029634Y-130259712D01*
X139015477Y-130223103D01*
X138992727Y-130193811D01*
X138945751Y-130159821D01*
X138884268Y-130136032D01*
X138816116Y-130122358D01*
X138740775Y-130115882D01*
X138593771Y-130118477D01*
X138422267Y-130118477D01*
X138422267Y-129864770D01*
X138426691Y-129803718D01*
X138438779Y-129755569D01*
X138457301Y-129717766D01*
X138497644Y-129670423D01*
X138547365Y-129638158D01*
X138603652Y-129617109D01*
X138662007Y-129604880D01*
X138768710Y-129597018D01*
X138854701Y-129601755D01*
G37*
G36*
X152165278Y-132687500D02*
G01*
X152165278Y-132533474D01*
X151843259Y-132533474D01*
X151843259Y-131723275D01*
X151922946Y-131772602D01*
X152010145Y-131812276D01*
X152105744Y-131842267D01*
X152177490Y-131682974D01*
X152074299Y-131650829D01*
X151968357Y-131597260D01*
X151902458Y-131551319D01*
X151847691Y-131500619D01*
X151802959Y-131444990D01*
X151668244Y-131444990D01*
X151668244Y-132533474D01*
X151372481Y-132533474D01*
X151372481Y-132687500D01*
X152165278Y-132687500D01*
G37*
G36*
X151093052Y-131584972D02*
G01*
X151005357Y-131517547D01*
X150905824Y-131465140D01*
X150834575Y-131440628D01*
X150757865Y-131425628D01*
X150674786Y-131420490D01*
X150603787Y-131426086D01*
X150540364Y-131442273D01*
X150483208Y-131468651D01*
X150431563Y-131504666D01*
X150388638Y-131547629D01*
X150353683Y-131598100D01*
X150328125Y-131653947D01*
X150312596Y-131714550D01*
X150307277Y-131780977D01*
X150311545Y-131853915D01*
X150323532Y-131915791D01*
X150342310Y-131968281D01*
X150382179Y-132041319D01*
X150430696Y-132104751D01*
X150538315Y-132221988D01*
X150834078Y-132533474D01*
X150270564Y-132533474D01*
X150270564Y-132687500D01*
X151072062Y-132687500D01*
X151072062Y-132533474D01*
X150764087Y-132221988D01*
X150633722Y-132093379D01*
X150572846Y-132026720D01*
X150523432Y-131956908D01*
X150498588Y-131906918D01*
X150483778Y-131854418D01*
X150478781Y-131798532D01*
X150485669Y-131739038D01*
X150505690Y-131687124D01*
X150539155Y-131640995D01*
X150583234Y-131605799D01*
X150637908Y-131584035D01*
X150706308Y-131576271D01*
X150779383Y-131584126D01*
X150855983Y-131608633D01*
X150929245Y-131646644D01*
X150998560Y-131697018D01*
X151093052Y-131584972D01*
G37*
G36*
X149613093Y-132720778D02*
G01*
X149651024Y-132715987D01*
X149684787Y-132701884D01*
X149715522Y-132677882D01*
X149739481Y-132647154D01*
X149753560Y-132613416D01*
X149758341Y-132575529D01*
X149753491Y-132536462D01*
X149739351Y-132502461D01*
X149715522Y-132472260D01*
X149684851Y-132448809D01*
X149651084Y-132434985D01*
X149613093Y-132430281D01*
X149574019Y-132435049D01*
X149540039Y-132448929D01*
X149509900Y-132472260D01*
X149486527Y-132502407D01*
X149472621Y-132536411D01*
X149467844Y-132575529D01*
X149472553Y-132613465D01*
X149486399Y-132647208D01*
X149509900Y-132677882D01*
X149540105Y-132701761D01*
X149574081Y-132715922D01*
X149613093Y-132720778D01*
G37*
G36*
X148610362Y-131422952D02*
G01*
X148681618Y-131439689D01*
X148741298Y-131465980D01*
X148795117Y-131502889D01*
X148841018Y-131548150D01*
X148879601Y-131602527D01*
X148909948Y-131662497D01*
X148934576Y-131730685D01*
X148953103Y-131808149D01*
X148969255Y-131929153D01*
X148974932Y-132066283D01*
X148969287Y-132201893D01*
X148953103Y-132323501D01*
X148934553Y-132401531D01*
X148909917Y-132470011D01*
X148879601Y-132530039D01*
X148841022Y-132584368D01*
X148795122Y-132629605D01*
X148741298Y-132666510D01*
X148681618Y-132692801D01*
X148610362Y-132709537D01*
X148525143Y-132715511D01*
X148439974Y-132709522D01*
X148369076Y-132692772D01*
X148309981Y-132666510D01*
X148256807Y-132629589D01*
X148211805Y-132584359D01*
X148174350Y-132530039D01*
X148145076Y-132470096D01*
X148121299Y-132401620D01*
X148103443Y-132323501D01*
X148087884Y-132201921D01*
X148082453Y-132066283D01*
X148082523Y-132064528D01*
X148253958Y-132064528D01*
X148256238Y-132167675D01*
X148262735Y-132259617D01*
X148276338Y-132346360D01*
X148297692Y-132417153D01*
X148318741Y-132459429D01*
X148345503Y-132494089D01*
X148378216Y-132522101D01*
X148416164Y-132542067D01*
X148464285Y-132555009D01*
X148525143Y-132559730D01*
X148582439Y-132555350D01*
X148629328Y-132543167D01*
X148670762Y-132522895D01*
X148703670Y-132496761D01*
X148280214Y-131763498D01*
X148267344Y-131826851D01*
X148259224Y-131901724D01*
X148253958Y-132064528D01*
X148082523Y-132064528D01*
X148087914Y-131929124D01*
X148103443Y-131808149D01*
X148132449Y-131695404D01*
X148158579Y-131637484D01*
X148346693Y-131637484D01*
X148771905Y-132372503D01*
X148787634Y-132307355D01*
X148797322Y-132231681D01*
X148803428Y-132064528D01*
X148800922Y-131961433D01*
X148793811Y-131870278D01*
X148779088Y-131784378D01*
X148756182Y-131713657D01*
X148733962Y-131671463D01*
X148706069Y-131637084D01*
X148672223Y-131609549D01*
X148633204Y-131589929D01*
X148584908Y-131577318D01*
X148525143Y-131572760D01*
X148466482Y-131577214D01*
X148420195Y-131589399D01*
X148379612Y-131609925D01*
X148346693Y-131637484D01*
X148158579Y-131637484D01*
X148174350Y-131602527D01*
X148211809Y-131548159D01*
X148256812Y-131502905D01*
X148309981Y-131465980D01*
X148369076Y-131439717D01*
X148439974Y-131422968D01*
X148525143Y-131416979D01*
X148610362Y-131422952D01*
G37*
G36*
X146802544Y-131725030D02*
G01*
X146622339Y-131725030D01*
X146533038Y-132065443D01*
X146489851Y-132207170D01*
X146449079Y-132325257D01*
X146405001Y-132436315D01*
X146359778Y-132535229D01*
X146314572Y-132436312D01*
X146270553Y-132325257D01*
X146229781Y-132207170D01*
X146186594Y-132065443D01*
X146097293Y-131725030D01*
X145917088Y-131725030D01*
X146003718Y-132052239D01*
X146045947Y-132189848D01*
X146085921Y-132305107D01*
X146128359Y-132413505D01*
X146169955Y-132508134D01*
X146263531Y-132687500D01*
X146456025Y-132687500D01*
X146548837Y-132508134D01*
X146591070Y-132413466D01*
X146633712Y-132305107D01*
X146673646Y-132189849D01*
X146715915Y-132052239D01*
X146802544Y-131725030D01*
G37*
G36*
X145102080Y-131786243D02*
G01*
X145145007Y-131755117D01*
X145194053Y-131731136D01*
X145247363Y-131716148D01*
X145306862Y-131710986D01*
X145377581Y-131717428D01*
X145444299Y-131736565D01*
X145508134Y-131768765D01*
X145564860Y-131812218D01*
X145614349Y-131867929D01*
X145656893Y-131937598D01*
X145686923Y-132013677D01*
X145706037Y-132103533D01*
X145712840Y-132209776D01*
X145705573Y-132308489D01*
X145684632Y-132396258D01*
X145650710Y-132474856D01*
X145604007Y-132546571D01*
X145549063Y-132605655D01*
X145485389Y-132653382D01*
X145414331Y-132688978D01*
X145340070Y-132710142D01*
X145261372Y-132717267D01*
X145196114Y-132712803D01*
X145135434Y-132699712D01*
X145077789Y-132679738D01*
X145026899Y-132655977D01*
X144978707Y-132681111D01*
X144912818Y-132697112D01*
X144823872Y-132701467D01*
X144823872Y-132559730D01*
X144876102Y-132550280D01*
X144909208Y-132530458D01*
X144928748Y-132500904D01*
X144935842Y-132458217D01*
X144935842Y-131938514D01*
X145102080Y-131938514D01*
X145102080Y-132536985D01*
X145173955Y-132557618D01*
X145261372Y-132564996D01*
X145313712Y-132560057D01*
X145361800Y-132545523D01*
X145406620Y-132521262D01*
X145446061Y-132488717D01*
X145480125Y-132447694D01*
X145508973Y-132397003D01*
X145529394Y-132342119D01*
X145542146Y-132280113D01*
X145546602Y-132209776D01*
X145538226Y-132104171D01*
X145515343Y-132021462D01*
X145480122Y-131956908D01*
X145443459Y-131917750D01*
X145397930Y-131889391D01*
X145341653Y-131871456D01*
X145271829Y-131865012D01*
X145223672Y-131870012D01*
X145176498Y-131885162D01*
X145133995Y-131909038D01*
X145102080Y-131938514D01*
X144935842Y-131938514D01*
X144935842Y-131375000D01*
X145102080Y-131375000D01*
X145102080Y-131786243D01*
G37*
G36*
X144143656Y-132715511D02*
G01*
X144233119Y-132710298D01*
X144311093Y-132694048D01*
X144379324Y-132667680D01*
X144439251Y-132631491D01*
X144491931Y-132585146D01*
X144535366Y-132530781D01*
X144569999Y-132467581D01*
X144595797Y-132394203D01*
X144612157Y-132308938D01*
X144617945Y-132209776D01*
X144609350Y-132088847D01*
X144585270Y-131987845D01*
X144547429Y-131903351D01*
X144496358Y-131832650D01*
X144445112Y-131784777D01*
X144386821Y-131747414D01*
X144320484Y-131720092D01*
X144244690Y-131703008D01*
X144157700Y-131697018D01*
X144082389Y-131703698D01*
X144013720Y-131723249D01*
X143950322Y-131755637D01*
X143894214Y-131799491D01*
X143848044Y-131853064D01*
X143811180Y-131917524D01*
X143944140Y-131978737D01*
X143982087Y-131924185D01*
X144031686Y-131884246D01*
X144090644Y-131859435D01*
X144157700Y-131850968D01*
X144225262Y-131857313D01*
X144282569Y-131875369D01*
X144331644Y-131904562D01*
X144373855Y-131945536D01*
X144406267Y-131994332D01*
X144430547Y-132053235D01*
X144446121Y-132124238D01*
X144451707Y-132209776D01*
X144445989Y-132293221D01*
X144429986Y-132362874D01*
X144404903Y-132421063D01*
X144371183Y-132469665D01*
X144327853Y-132509815D01*
X144276652Y-132538756D01*
X144216001Y-132556840D01*
X144143656Y-132563241D01*
X144064271Y-132555594D01*
X143994973Y-132533550D01*
X143930612Y-132499237D01*
X143868959Y-132454782D01*
X143781413Y-132578964D01*
X143856697Y-132634839D01*
X143945056Y-132677882D01*
X144040984Y-132705122D01*
X144143656Y-132715511D01*
G37*
G36*
X142405334Y-132687500D02*
G01*
X142405334Y-132533474D01*
X142083315Y-132533474D01*
X142083315Y-131723275D01*
X142163001Y-131772602D01*
X142250201Y-131812276D01*
X142345799Y-131842267D01*
X142417546Y-131682974D01*
X142314355Y-131650829D01*
X142208413Y-131597260D01*
X142142514Y-131551319D01*
X142087747Y-131500619D01*
X142043015Y-131444990D01*
X141908299Y-131444990D01*
X141908299Y-132533474D01*
X141612537Y-132533474D01*
X141612537Y-132687500D01*
X142405334Y-132687500D01*
G37*
G36*
X140937587Y-132720778D02*
G01*
X140975518Y-132715987D01*
X141009281Y-132701884D01*
X141040016Y-132677882D01*
X141063976Y-132647154D01*
X141078054Y-132613416D01*
X141082835Y-132575529D01*
X141077985Y-132536462D01*
X141063845Y-132502461D01*
X141040016Y-132472260D01*
X141009346Y-132448809D01*
X140975578Y-132434985D01*
X140937587Y-132430281D01*
X140898513Y-132435049D01*
X140864533Y-132448929D01*
X140834394Y-132472260D01*
X140811022Y-132502407D01*
X140797115Y-132536411D01*
X140792339Y-132575529D01*
X140797047Y-132613465D01*
X140810893Y-132647208D01*
X140834394Y-132677882D01*
X140864599Y-132701761D01*
X140898575Y-132715922D01*
X140937587Y-132720778D01*
G37*
G36*
X139934857Y-131422952D02*
G01*
X140006113Y-131439689D01*
X140065792Y-131465980D01*
X140119611Y-131502889D01*
X140165512Y-131548150D01*
X140204095Y-131602527D01*
X140234442Y-131662497D01*
X140259070Y-131730685D01*
X140277597Y-131808149D01*
X140293749Y-131929153D01*
X140299426Y-132066283D01*
X140293781Y-132201893D01*
X140277597Y-132323501D01*
X140259047Y-132401531D01*
X140234412Y-132470011D01*
X140204095Y-132530039D01*
X140165516Y-132584368D01*
X140119616Y-132629605D01*
X140065792Y-132666510D01*
X140006113Y-132692801D01*
X139934857Y-132709537D01*
X139849637Y-132715511D01*
X139764468Y-132709522D01*
X139693570Y-132692772D01*
X139634475Y-132666510D01*
X139581301Y-132629589D01*
X139536299Y-132584359D01*
X139498844Y-132530039D01*
X139469570Y-132470096D01*
X139445793Y-132401620D01*
X139427937Y-132323501D01*
X139412378Y-132201921D01*
X139406947Y-132066283D01*
X139407017Y-132064528D01*
X139578452Y-132064528D01*
X139580732Y-132167675D01*
X139587229Y-132259617D01*
X139600832Y-132346360D01*
X139622186Y-132417153D01*
X139643235Y-132459429D01*
X139669997Y-132494089D01*
X139702710Y-132522101D01*
X139740658Y-132542067D01*
X139788779Y-132555009D01*
X139849637Y-132559730D01*
X139906933Y-132555350D01*
X139953822Y-132543167D01*
X139995256Y-132522895D01*
X140028164Y-132496761D01*
X139604708Y-131763498D01*
X139591838Y-131826851D01*
X139583718Y-131901724D01*
X139578452Y-132064528D01*
X139407017Y-132064528D01*
X139412408Y-131929124D01*
X139427937Y-131808149D01*
X139456944Y-131695404D01*
X139483074Y-131637484D01*
X139671188Y-131637484D01*
X140096399Y-132372503D01*
X140112128Y-132307355D01*
X140121816Y-132231681D01*
X140127922Y-132064528D01*
X140125416Y-131961433D01*
X140118305Y-131870278D01*
X140103582Y-131784378D01*
X140080676Y-131713657D01*
X140058456Y-131671463D01*
X140030563Y-131637084D01*
X139996717Y-131609549D01*
X139957698Y-131589929D01*
X139909402Y-131577318D01*
X139849637Y-131572760D01*
X139790976Y-131577214D01*
X139744689Y-131589399D01*
X139704106Y-131609925D01*
X139671188Y-131637484D01*
X139483074Y-131637484D01*
X139498844Y-131602527D01*
X139536303Y-131548159D01*
X139581306Y-131502905D01*
X139634475Y-131465980D01*
X139693570Y-131439717D01*
X139764468Y-131422968D01*
X139849637Y-131416979D01*
X139934857Y-131422952D01*
G37*
G36*
X138854701Y-131701755D02*
G01*
X138943726Y-131716253D01*
X139032279Y-131741218D01*
X139124007Y-131779221D01*
X139041728Y-131910502D01*
X138970987Y-131880412D01*
X138913119Y-131864096D01*
X138856002Y-131855564D01*
X138798477Y-131852723D01*
X138712449Y-131859432D01*
X138662846Y-131875468D01*
X138627325Y-131904025D01*
X138606899Y-131943780D01*
X138597355Y-131992014D01*
X138593771Y-132055750D01*
X138593771Y-132080251D01*
X138734669Y-132081167D01*
X138812559Y-132088536D01*
X138892129Y-132102156D01*
X138969193Y-132123961D01*
X139039133Y-132155508D01*
X139100030Y-132198917D01*
X139147592Y-132255266D01*
X139169732Y-132299035D01*
X139183738Y-132351459D01*
X139188732Y-132414482D01*
X139182733Y-132481717D01*
X139165844Y-132537584D01*
X139138891Y-132584307D01*
X139102608Y-132625014D01*
X139061074Y-132657782D01*
X139013716Y-132683149D01*
X138937906Y-132707635D01*
X138864957Y-132715511D01*
X138787046Y-132711279D01*
X138724989Y-132699747D01*
X138675974Y-132682309D01*
X138609732Y-132644489D01*
X138560493Y-132601786D01*
X138527502Y-132647429D01*
X138480885Y-132679638D01*
X138444212Y-132692318D01*
X138393845Y-132700172D01*
X138326020Y-132701467D01*
X138326020Y-132559730D01*
X138375805Y-132549656D01*
X138402117Y-132530879D01*
X138416719Y-132501787D01*
X138422267Y-132458217D01*
X138422267Y-132218477D01*
X138593771Y-132218477D01*
X138593771Y-132414482D01*
X138629730Y-132465260D01*
X138682080Y-132513400D01*
X138723535Y-132536883D01*
X138778043Y-132552283D01*
X138849234Y-132557974D01*
X138895784Y-132553430D01*
X138938342Y-132540071D01*
X138977843Y-132517751D01*
X139009521Y-132487315D01*
X139028210Y-132450681D01*
X139034706Y-132405781D01*
X139029634Y-132359712D01*
X139015477Y-132323103D01*
X138992727Y-132293811D01*
X138945751Y-132259821D01*
X138884268Y-132236032D01*
X138816116Y-132222358D01*
X138740775Y-132215882D01*
X138593771Y-132218477D01*
X138422267Y-132218477D01*
X138422267Y-131964770D01*
X138426691Y-131903718D01*
X138438779Y-131855569D01*
X138457301Y-131817766D01*
X138497644Y-131770423D01*
X138547365Y-131738158D01*
X138603652Y-131717109D01*
X138662007Y-131704880D01*
X138768710Y-131697018D01*
X138854701Y-131701755D01*
G37*
G36*
X160889785Y-134787500D02*
G01*
X160545021Y-134787500D01*
X160457629Y-134782198D01*
X160379428Y-134766936D01*
X160309156Y-134742371D01*
X160245747Y-134708731D01*
X160187962Y-134665621D01*
X160137287Y-134614032D01*
X160093300Y-134553225D01*
X160055925Y-134482120D01*
X160020633Y-134381475D01*
X159998223Y-134264293D01*
X159990284Y-134127739D01*
X160161712Y-134127739D01*
X160166080Y-134216771D01*
X160179267Y-134306265D01*
X160203308Y-134392351D01*
X160239641Y-134469907D01*
X160271754Y-134516196D01*
X160310641Y-134555688D01*
X160356878Y-134588900D01*
X160408284Y-134612789D01*
X160470239Y-134628021D01*
X160545021Y-134633474D01*
X160718281Y-134633474D01*
X160718281Y-133699016D01*
X160534488Y-133699016D01*
X160451209Y-133706401D01*
X160379599Y-133727492D01*
X160317457Y-133761607D01*
X160263226Y-133809307D01*
X160220943Y-133866826D01*
X160189334Y-133937181D01*
X160169024Y-134023037D01*
X160161712Y-134127739D01*
X159990284Y-134127739D01*
X159995803Y-134019701D01*
X160011168Y-133929294D01*
X160034935Y-133853881D01*
X160069261Y-133782811D01*
X160109808Y-133723501D01*
X160156522Y-133674515D01*
X160210281Y-133633088D01*
X160268164Y-133600258D01*
X160330698Y-133575673D01*
X160429612Y-133552748D01*
X160534488Y-133544990D01*
X160889785Y-133544990D01*
X160889785Y-134787500D01*
G37*
G36*
X159468295Y-133805951D02*
G01*
X159554336Y-133831423D01*
X159628696Y-133872570D01*
X159693300Y-133930054D01*
X159743695Y-133999370D01*
X159781293Y-134083603D01*
X159805392Y-134185799D01*
X159814048Y-134309776D01*
X159806750Y-134416900D01*
X159786176Y-134507896D01*
X159753674Y-134585389D01*
X159707703Y-134655332D01*
X159652263Y-134712054D01*
X159586597Y-134756893D01*
X159513369Y-134788972D01*
X159432224Y-134808692D01*
X159341591Y-134815511D01*
X159271770Y-134812398D01*
X159191076Y-134802383D01*
X159105814Y-134780890D01*
X158991560Y-134734987D01*
X159049339Y-134602028D01*
X159135937Y-134634771D01*
X159210310Y-134652784D01*
X159324036Y-134664996D01*
X159400878Y-134658539D01*
X159471039Y-134639656D01*
X159533602Y-134606382D01*
X159584841Y-134557377D01*
X159610478Y-134517269D01*
X159629938Y-134467490D01*
X159642544Y-134406023D01*
X158975837Y-134406023D01*
X158960440Y-134335523D01*
X158954058Y-134264817D01*
X158954327Y-134257264D01*
X159107041Y-134257264D01*
X159649566Y-134257264D01*
X159641324Y-134177584D01*
X159617203Y-134105909D01*
X159592198Y-134062550D01*
X159560848Y-134025401D01*
X159522712Y-133993863D01*
X159479476Y-133970443D01*
X159430062Y-133956007D01*
X159373037Y-133950968D01*
X159313700Y-133956072D01*
X159263213Y-133970571D01*
X159219927Y-133993863D01*
X159182062Y-134025522D01*
X159151924Y-134062657D01*
X159128947Y-134105909D01*
X159109179Y-134177370D01*
X159107041Y-134257264D01*
X158954327Y-134257264D01*
X158956603Y-134193379D01*
X158968012Y-134122900D01*
X158987846Y-134057203D01*
X159016061Y-133995618D01*
X159053087Y-133939423D01*
X159098377Y-133891540D01*
X159152608Y-133851286D01*
X159213144Y-133821954D01*
X159284146Y-133803533D01*
X159367847Y-133797018D01*
X159468295Y-133805951D01*
G37*
G36*
X158685875Y-134664996D02*
G01*
X158579095Y-134547760D01*
X158506856Y-134591202D01*
X158429496Y-134627368D01*
X158349482Y-134651856D01*
X158272875Y-134659730D01*
X158204355Y-134655320D01*
X158153799Y-134643663D01*
X158117171Y-134626528D01*
X158087064Y-134601133D01*
X158070254Y-134572971D01*
X158064658Y-134540738D01*
X158069271Y-134508825D01*
X158082942Y-134480625D01*
X158106638Y-134455024D01*
X158152834Y-134423085D01*
X158215173Y-134392895D01*
X158355994Y-134339543D01*
X158428844Y-134311126D01*
X158496892Y-134279169D01*
X158558182Y-134240351D01*
X158605427Y-134195134D01*
X158628455Y-134159840D01*
X158642508Y-134119179D01*
X158647407Y-134071715D01*
X158638483Y-134008617D01*
X158612373Y-133954479D01*
X158572485Y-133908024D01*
X158521393Y-133868765D01*
X158463167Y-133838207D01*
X158399729Y-133816253D01*
X158334163Y-133803063D01*
X158271120Y-133798774D01*
X158199507Y-133803044D01*
X158136642Y-133815227D01*
X158081297Y-133834647D01*
X158002000Y-133877233D01*
X157921089Y-133937000D01*
X158026114Y-134048970D01*
X158086371Y-134007674D01*
X158142511Y-133978140D01*
X158201967Y-133959302D01*
X158271120Y-133952723D01*
X158345220Y-133961022D01*
X158410262Y-133985162D01*
X158447092Y-134010556D01*
X158467776Y-134037929D01*
X158475902Y-134068281D01*
X158472623Y-134091954D01*
X158460207Y-134114078D01*
X158436518Y-134135676D01*
X158391568Y-134162768D01*
X158328899Y-134191623D01*
X158187161Y-134248486D01*
X158113652Y-134280663D01*
X158045424Y-134316798D01*
X157984090Y-134359821D01*
X157936049Y-134409534D01*
X157912414Y-134447586D01*
X157898098Y-134490313D01*
X157893154Y-134538982D01*
X157899501Y-134598810D01*
X157917866Y-134650994D01*
X157948253Y-134697216D01*
X157991996Y-134738498D01*
X158042582Y-134769487D01*
X158104643Y-134793006D01*
X158180489Y-134808250D01*
X158272875Y-134813756D01*
X158350240Y-134808992D01*
X158425899Y-134794743D01*
X158500403Y-134770860D01*
X158604065Y-134721693D01*
X158685875Y-134664996D01*
G37*
G36*
X157204160Y-133727028D02*
G01*
X157239920Y-133722568D01*
X157272279Y-133709362D01*
X157302239Y-133686804D01*
X157325601Y-133657733D01*
X157339460Y-133624875D01*
X157344218Y-133586970D01*
X157339528Y-133550247D01*
X157325730Y-133517677D01*
X157302239Y-133488128D01*
X157272215Y-133465018D01*
X157239862Y-133451533D01*
X157204160Y-133446988D01*
X157166250Y-133451665D01*
X157133440Y-133465267D01*
X157104479Y-133488128D01*
X157081996Y-133517558D01*
X157068710Y-133550136D01*
X157064179Y-133586970D01*
X157068776Y-133624990D01*
X157082121Y-133657854D01*
X157104479Y-133686804D01*
X157133374Y-133709117D01*
X157166188Y-133722438D01*
X157204160Y-133727028D01*
G37*
G36*
X157597926Y-134787500D02*
G01*
X157597926Y-134636985D01*
X157261939Y-134636985D01*
X157261939Y-134050726D01*
X157503434Y-134050726D01*
X157503434Y-133896776D01*
X157102647Y-133896776D01*
X157102647Y-134636985D01*
X156813906Y-134636985D01*
X156813906Y-134787500D01*
X157597926Y-134787500D01*
G37*
G36*
X155862482Y-133730102D02*
G01*
X155872121Y-133782974D01*
X155884851Y-133813463D01*
X155903576Y-133833812D01*
X155928984Y-133846020D01*
X155991277Y-133819095D01*
X156059154Y-133802662D01*
X156133766Y-133797018D01*
X156207331Y-133802217D01*
X156273447Y-133817252D01*
X156333282Y-133841669D01*
X156388025Y-133875564D01*
X156433807Y-133916530D01*
X156471508Y-133965012D01*
X156499542Y-134019433D01*
X156516475Y-134078515D01*
X156522265Y-134143462D01*
X156516895Y-134203915D01*
X156501365Y-134257462D01*
X156475935Y-134305425D01*
X156441886Y-134348181D01*
X156402091Y-134383866D01*
X156356027Y-134412968D01*
X156387675Y-134422627D01*
X156424262Y-134439301D01*
X156458526Y-134461297D01*
X156487231Y-134488302D01*
X156506757Y-134521043D01*
X156513487Y-134561728D01*
X156505230Y-134603070D01*
X156479063Y-134643042D01*
X156429529Y-134683391D01*
X156370629Y-134710540D01*
X156285333Y-134729454D01*
X156165212Y-134736743D01*
X156068965Y-134736743D01*
X155978195Y-134741540D01*
X155920880Y-134753338D01*
X155887004Y-134769105D01*
X155860117Y-134793513D01*
X155844877Y-134820804D01*
X155839759Y-134852224D01*
X155846621Y-134895847D01*
X155867227Y-134934988D01*
X155903644Y-134971216D01*
X155949405Y-134995892D01*
X156019595Y-135013361D01*
X156123233Y-135020217D01*
X156215667Y-135012238D01*
X156301759Y-134988695D01*
X156353135Y-134961881D01*
X156398408Y-134921787D01*
X156438230Y-134866268D01*
X156567755Y-134936259D01*
X156516978Y-135011571D01*
X156456883Y-135069501D01*
X156386634Y-135112114D01*
X156308505Y-135141054D01*
X156220113Y-135159141D01*
X156119722Y-135165465D01*
X156005393Y-135158679D01*
X155914268Y-135140138D01*
X155842158Y-135111958D01*
X155785567Y-135075324D01*
X155736661Y-135026359D01*
X155702725Y-134972521D01*
X155682296Y-134912732D01*
X155675276Y-134845278D01*
X155681381Y-134789908D01*
X155699123Y-134741321D01*
X155728670Y-134697952D01*
X155771523Y-134658890D01*
X155820167Y-134630959D01*
X155885838Y-134608699D01*
X155972917Y-134593619D01*
X156086520Y-134587984D01*
X156139033Y-134587984D01*
X156232684Y-134585389D01*
X156276980Y-134580236D01*
X156310537Y-134571345D01*
X156334818Y-134555870D01*
X156341983Y-134535471D01*
X156337132Y-134517936D01*
X156321227Y-134502360D01*
X156288631Y-134488302D01*
X156231962Y-134476027D01*
X156156511Y-134468992D01*
X156049141Y-134456678D01*
X155953484Y-134431363D01*
X155894779Y-134405064D01*
X155845627Y-134371016D01*
X155804801Y-134329010D01*
X155774664Y-134279507D01*
X155755614Y-134218632D01*
X155748778Y-134143462D01*
X155916772Y-134143462D01*
X155922442Y-134198087D01*
X155940609Y-134241527D01*
X155971039Y-134276498D01*
X156011030Y-134301439D01*
X156064011Y-134317723D01*
X156133766Y-134323743D01*
X156198748Y-134317982D01*
X156251620Y-134301910D01*
X156294814Y-134276498D01*
X156328354Y-134241123D01*
X156348096Y-134197674D01*
X156354272Y-134143462D01*
X156346673Y-134096016D01*
X156327176Y-134050802D01*
X156296397Y-134011254D01*
X156252758Y-133978140D01*
X156200064Y-133956828D01*
X156133766Y-133949212D01*
X156067600Y-133956855D01*
X156015690Y-133978140D01*
X155972763Y-134011198D01*
X155942188Y-134050802D01*
X155923074Y-134096025D01*
X155916772Y-134143462D01*
X155748778Y-134143462D01*
X155753903Y-134081951D01*
X155768928Y-134025385D01*
X155793250Y-133972949D01*
X155825715Y-133926467D01*
X155772565Y-133904570D01*
X155734147Y-133874896D01*
X155707639Y-133837242D01*
X155690623Y-133792859D01*
X155679395Y-133736573D01*
X155675276Y-133665738D01*
X155858993Y-133665738D01*
X155862482Y-133730102D01*
G37*
G36*
X155425538Y-134787500D02*
G01*
X155425538Y-133818008D01*
X155275023Y-133818008D01*
X155259300Y-133935245D01*
X155178211Y-133881017D01*
X155086041Y-133835563D01*
X155020931Y-133812890D01*
X154959348Y-133800325D01*
X154900569Y-133797018D01*
X154836235Y-133805117D01*
X154776310Y-133829381D01*
X154741325Y-133854528D01*
X154710463Y-133888994D01*
X154683574Y-133934405D01*
X154665202Y-133984102D01*
X154653022Y-134047525D01*
X154648541Y-134127739D01*
X154648541Y-134787500D01*
X154821800Y-134787500D01*
X154821800Y-134155750D01*
X154826471Y-134088428D01*
X154838541Y-134041473D01*
X154855918Y-134009662D01*
X154881702Y-133985475D01*
X154915535Y-133970452D01*
X154960027Y-133965012D01*
X155022000Y-133972177D01*
X155093978Y-133995618D01*
X155166994Y-134033920D01*
X155257545Y-134097971D01*
X155257545Y-134787500D01*
X155425538Y-134787500D01*
G37*
G36*
X154046104Y-133805951D02*
G01*
X154132145Y-133831423D01*
X154206505Y-133872570D01*
X154271109Y-133930054D01*
X154321504Y-133999370D01*
X154359102Y-134083603D01*
X154383201Y-134185799D01*
X154391857Y-134309776D01*
X154384559Y-134416900D01*
X154363985Y-134507896D01*
X154331483Y-134585389D01*
X154285512Y-134655332D01*
X154230072Y-134712054D01*
X154164405Y-134756893D01*
X154091177Y-134788972D01*
X154010033Y-134808692D01*
X153919399Y-134815511D01*
X153849579Y-134812398D01*
X153768885Y-134802383D01*
X153683623Y-134780890D01*
X153569369Y-134734987D01*
X153627148Y-134602028D01*
X153713746Y-134634771D01*
X153788119Y-134652784D01*
X153901844Y-134664996D01*
X153978686Y-134658539D01*
X154048848Y-134639656D01*
X154111411Y-134606382D01*
X154162650Y-134557377D01*
X154188286Y-134517269D01*
X154207747Y-134467490D01*
X154220352Y-134406023D01*
X153553646Y-134406023D01*
X153538249Y-134335523D01*
X153531867Y-134264817D01*
X153532136Y-134257264D01*
X153684850Y-134257264D01*
X154227374Y-134257264D01*
X154219133Y-134177584D01*
X154195012Y-134105909D01*
X154170007Y-134062550D01*
X154138657Y-134025401D01*
X154100521Y-133993863D01*
X154057285Y-133970443D01*
X154007871Y-133956007D01*
X153950846Y-133950968D01*
X153891509Y-133956072D01*
X153841022Y-133970571D01*
X153797736Y-133993863D01*
X153759871Y-134025522D01*
X153729733Y-134062657D01*
X153706755Y-134105909D01*
X153686987Y-134177370D01*
X153684850Y-134257264D01*
X153532136Y-134257264D01*
X153534412Y-134193379D01*
X153545820Y-134122900D01*
X153565655Y-134057203D01*
X153593869Y-133995618D01*
X153630896Y-133939423D01*
X153676186Y-133891540D01*
X153730416Y-133851286D01*
X153790953Y-133821954D01*
X153861955Y-133803533D01*
X153945655Y-133797018D01*
X154046104Y-133805951D01*
G37*
G36*
X152693148Y-133886243D02*
G01*
X152736075Y-133855117D01*
X152785120Y-133831136D01*
X152838430Y-133816148D01*
X152897930Y-133810986D01*
X152968649Y-133817428D01*
X153035367Y-133836565D01*
X153099201Y-133868765D01*
X153155928Y-133912218D01*
X153205417Y-133967929D01*
X153247961Y-134037598D01*
X153277991Y-134113677D01*
X153297105Y-134203533D01*
X153303907Y-134309776D01*
X153296640Y-134408489D01*
X153275699Y-134496258D01*
X153241778Y-134574856D01*
X153195075Y-134646571D01*
X153140131Y-134705655D01*
X153076456Y-134753382D01*
X153005399Y-134788978D01*
X152931137Y-134810142D01*
X152852440Y-134817267D01*
X152787182Y-134812803D01*
X152726502Y-134799712D01*
X152668856Y-134779738D01*
X152617967Y-134755977D01*
X152569775Y-134781111D01*
X152503886Y-134797112D01*
X152414940Y-134801467D01*
X152414940Y-134659730D01*
X152467170Y-134650280D01*
X152500275Y-134630458D01*
X152519816Y-134600904D01*
X152526910Y-134558217D01*
X152526910Y-134038514D01*
X152693148Y-134038514D01*
X152693148Y-134636985D01*
X152765023Y-134657618D01*
X152852440Y-134664996D01*
X152904780Y-134660057D01*
X152952868Y-134645523D01*
X152997688Y-134621262D01*
X153037129Y-134588717D01*
X153071192Y-134547694D01*
X153100041Y-134497003D01*
X153120462Y-134442119D01*
X153133214Y-134380113D01*
X153137670Y-134309776D01*
X153129294Y-134204171D01*
X153106411Y-134121462D01*
X153071190Y-134056908D01*
X153034526Y-134017750D01*
X152988998Y-133989391D01*
X152932721Y-133971456D01*
X152862896Y-133965012D01*
X152814740Y-133970012D01*
X152767565Y-133985162D01*
X152725062Y-134009038D01*
X152693148Y-134038514D01*
X152526910Y-134038514D01*
X152526910Y-133475000D01*
X152693148Y-133475000D01*
X152693148Y-133886243D01*
G37*
G36*
X151205022Y-133576513D02*
G01*
X151044050Y-133604525D01*
X151044050Y-134801467D01*
X150877813Y-134801467D01*
X150877813Y-134685986D01*
X150829253Y-134739597D01*
X150771949Y-134780554D01*
X150706762Y-134806604D01*
X150632807Y-134815511D01*
X150552566Y-134807235D01*
X150483979Y-134783514D01*
X150424590Y-134744681D01*
X150373932Y-134693394D01*
X150331973Y-134632016D01*
X150298575Y-134559132D01*
X150275408Y-134481707D01*
X150261313Y-134399985D01*
X150256520Y-134313287D01*
X150421079Y-134313287D01*
X150424104Y-134372945D01*
X150433367Y-134434874D01*
X150449298Y-134495004D01*
X150471835Y-134548676D01*
X150502941Y-134595547D01*
X150542742Y-134631795D01*
X150591173Y-134655035D01*
X150652041Y-134663241D01*
X150702753Y-134657674D01*
X150747824Y-134641419D01*
X150788588Y-134614240D01*
X150839557Y-134559807D01*
X150877813Y-134493492D01*
X150877813Y-134141782D01*
X150839567Y-134073508D01*
X150788588Y-134016684D01*
X150747642Y-133987927D01*
X150702586Y-133970841D01*
X150652041Y-133965012D01*
X150591179Y-133973236D01*
X150542742Y-133996534D01*
X150502949Y-134032734D01*
X150471835Y-134079653D01*
X150449269Y-134133148D01*
X150433367Y-134192539D01*
X150424115Y-134253679D01*
X150421079Y-134313287D01*
X150256520Y-134313287D01*
X150262521Y-134216801D01*
X150280181Y-134126059D01*
X150310052Y-134040436D01*
X150351088Y-133965012D01*
X150404425Y-133900527D01*
X150468324Y-133852126D01*
X150516528Y-133829687D01*
X150570931Y-133815816D01*
X150632807Y-133810986D01*
X150706708Y-133820112D01*
X150771949Y-133846859D01*
X150829291Y-133888478D01*
X150877813Y-133942267D01*
X150877813Y-133475000D01*
X151205022Y-133475000D01*
X151205022Y-133576513D01*
G37*
G36*
X149856343Y-135163786D02*
G01*
X149856343Y-135009760D01*
X149628892Y-135009760D01*
X149538074Y-135004984D01*
X149479293Y-134993121D01*
X149432962Y-134969803D01*
X149404876Y-134936259D01*
X149389714Y-134891917D01*
X149383886Y-134827723D01*
X149383886Y-134678964D01*
X149439111Y-134720705D01*
X149500283Y-134755137D01*
X149566887Y-134777461D01*
X149642860Y-134783989D01*
X149718783Y-134772992D01*
X149788108Y-134743765D01*
X149828214Y-134713962D01*
X149863171Y-134673453D01*
X149893132Y-134620346D01*
X149913292Y-134562406D01*
X149926676Y-134488604D01*
X149931601Y-134395490D01*
X149928090Y-133973713D01*
X150073338Y-133952723D01*
X150073338Y-133833731D01*
X149761852Y-133833731D01*
X149761852Y-134306265D01*
X149759297Y-134393129D01*
X149752235Y-134465481D01*
X149736290Y-134530349D01*
X149711171Y-134575771D01*
X149687341Y-134597326D01*
X149655009Y-134610976D01*
X149611337Y-134615995D01*
X149552906Y-134608926D01*
X149494177Y-134587144D01*
X149438201Y-134554404D01*
X149383886Y-134512726D01*
X149383886Y-133825030D01*
X149212382Y-133825030D01*
X149212382Y-134829479D01*
X149218659Y-134918020D01*
X149235780Y-134987615D01*
X149261930Y-135042001D01*
X149296417Y-135084102D01*
X149340370Y-135117296D01*
X149394345Y-135142097D01*
X149460448Y-135158040D01*
X149541346Y-135163786D01*
X149856343Y-135163786D01*
G37*
G36*
X147876526Y-134787500D02*
G01*
X147531762Y-134787500D01*
X147444370Y-134782198D01*
X147366169Y-134766936D01*
X147295898Y-134742371D01*
X147232488Y-134708731D01*
X147174703Y-134665621D01*
X147124028Y-134614032D01*
X147080041Y-134553225D01*
X147042666Y-134482120D01*
X147007374Y-134381475D01*
X146984964Y-134264293D01*
X146977025Y-134127739D01*
X147148453Y-134127739D01*
X147152821Y-134216771D01*
X147166008Y-134306265D01*
X147190049Y-134392351D01*
X147226382Y-134469907D01*
X147258495Y-134516196D01*
X147297382Y-134555688D01*
X147343619Y-134588900D01*
X147395025Y-134612789D01*
X147456980Y-134628021D01*
X147531762Y-134633474D01*
X147705022Y-134633474D01*
X147705022Y-133699016D01*
X147521229Y-133699016D01*
X147437950Y-133706401D01*
X147366340Y-133727492D01*
X147304198Y-133761607D01*
X147249967Y-133809307D01*
X147207684Y-133866826D01*
X147176075Y-133937181D01*
X147155765Y-134023037D01*
X147148453Y-134127739D01*
X146977025Y-134127739D01*
X146982544Y-134019701D01*
X146997909Y-133929294D01*
X147021676Y-133853881D01*
X147056002Y-133782811D01*
X147096549Y-133723501D01*
X147143263Y-133674515D01*
X147197022Y-133633088D01*
X147254905Y-133600258D01*
X147317439Y-133575673D01*
X147416354Y-133552748D01*
X147521229Y-133544990D01*
X147876526Y-133544990D01*
X147876526Y-134787500D01*
G37*
G36*
X146445769Y-133801755D02*
G01*
X146534793Y-133816253D01*
X146623347Y-133841218D01*
X146715075Y-133879221D01*
X146632796Y-134010502D01*
X146562055Y-133980412D01*
X146504187Y-133964096D01*
X146447070Y-133955564D01*
X146389545Y-133952723D01*
X146303517Y-133959432D01*
X146253914Y-133975468D01*
X146218393Y-134004025D01*
X146197967Y-134043780D01*
X146188422Y-134092014D01*
X146184839Y-134155750D01*
X146184839Y-134180251D01*
X146325737Y-134181167D01*
X146403627Y-134188536D01*
X146483197Y-134202156D01*
X146560261Y-134223961D01*
X146630201Y-134255508D01*
X146691097Y-134298917D01*
X146738660Y-134355266D01*
X146760800Y-134399035D01*
X146774806Y-134451459D01*
X146779799Y-134514482D01*
X146773801Y-134581717D01*
X146756911Y-134637584D01*
X146729959Y-134684307D01*
X146693676Y-134725014D01*
X146652141Y-134757782D01*
X146604784Y-134783149D01*
X146528974Y-134807635D01*
X146456025Y-134815511D01*
X146378113Y-134811279D01*
X146316057Y-134799747D01*
X146267042Y-134782309D01*
X146200800Y-134744489D01*
X146151561Y-134701786D01*
X146118570Y-134747429D01*
X146071953Y-134779638D01*
X146035279Y-134792318D01*
X145984913Y-134800172D01*
X145917088Y-134801467D01*
X145917088Y-134659730D01*
X145966873Y-134649656D01*
X145993185Y-134630879D01*
X146007787Y-134601787D01*
X146013335Y-134558217D01*
X146013335Y-134318477D01*
X146184839Y-134318477D01*
X146184839Y-134514482D01*
X146220798Y-134565260D01*
X146273148Y-134613400D01*
X146314602Y-134636883D01*
X146369110Y-134652283D01*
X146440302Y-134657974D01*
X146486852Y-134653430D01*
X146529409Y-134640071D01*
X146568911Y-134617751D01*
X146600589Y-134587315D01*
X146619277Y-134550681D01*
X146625774Y-134505781D01*
X146620702Y-134459712D01*
X146606544Y-134423103D01*
X146583794Y-134393811D01*
X146536819Y-134359821D01*
X146475335Y-134336032D01*
X146407184Y-134322358D01*
X146331843Y-134315882D01*
X146184839Y-134318477D01*
X146013335Y-134318477D01*
X146013335Y-134064770D01*
X146017759Y-134003718D01*
X146029847Y-133955569D01*
X146048368Y-133917766D01*
X146088712Y-133870423D01*
X146138433Y-133838158D01*
X146194719Y-133817109D01*
X146253074Y-133804880D01*
X146359778Y-133797018D01*
X146445769Y-133801755D01*
G37*
G36*
X145700628Y-134787500D02*
G01*
X145700628Y-134644007D01*
X145504623Y-134644007D01*
X145504623Y-133940511D01*
X145663838Y-133912500D01*
X145663838Y-133810986D01*
X145355864Y-133810986D01*
X145338385Y-133938756D01*
X145273131Y-133884520D01*
X145204509Y-133838158D01*
X145155794Y-133814381D01*
X145105600Y-133800794D01*
X145053079Y-133797018D01*
X144980184Y-133806506D01*
X144913173Y-133831136D01*
X144873120Y-133856192D01*
X144840693Y-133887214D01*
X144815095Y-133924712D01*
X144937598Y-134027981D01*
X144969049Y-133997446D01*
X145007665Y-133975545D01*
X145050523Y-133962378D01*
X145095134Y-133957990D01*
X145152787Y-133967662D01*
X145211531Y-133998290D01*
X145268277Y-134042437D01*
X145333118Y-134101482D01*
X145333118Y-134644007D01*
X144972631Y-134644007D01*
X144972631Y-134787500D01*
X145700628Y-134787500D01*
G37*
G36*
X143921395Y-134787500D02*
G01*
X144283714Y-134351755D01*
X144395684Y-134470747D01*
X144395684Y-134787500D01*
X144567188Y-134787500D01*
X144567188Y-133475000D01*
X144395684Y-133475000D01*
X144395684Y-134241464D01*
X144001919Y-133825030D01*
X143802403Y-133825030D01*
X143802403Y-133842509D01*
X144176934Y-134238029D01*
X143727145Y-134770021D01*
X143727145Y-134787500D01*
X143921395Y-134787500D01*
G37*
G36*
X142179566Y-133694934D02*
G01*
X142246731Y-133871539D01*
X142314277Y-134077898D01*
X142404774Y-134400194D01*
X142498070Y-134787500D01*
X142321299Y-134787500D01*
X142286342Y-134636145D01*
X142253063Y-134489981D01*
X141791063Y-134489981D01*
X141757785Y-134636145D01*
X141722827Y-134787500D01*
X141546057Y-134787500D01*
X141639073Y-134400188D01*
X141656961Y-134336032D01*
X141829531Y-134336032D01*
X142214519Y-134336032D01*
X142121783Y-134001801D01*
X142072291Y-133849474D01*
X142022025Y-133714739D01*
X141971759Y-133849474D01*
X141922267Y-134001801D01*
X141829531Y-134336032D01*
X141656961Y-134336032D01*
X141728934Y-134077898D01*
X141796175Y-133871636D01*
X141863668Y-133695031D01*
X141931045Y-133544990D01*
X142113082Y-133544990D01*
X142179566Y-133694934D01*
G37*
G36*
X140890341Y-134815511D02*
G01*
X140979805Y-134810298D01*
X141057778Y-134794048D01*
X141126009Y-134767680D01*
X141185936Y-134731491D01*
X141238616Y-134685146D01*
X141282051Y-134630781D01*
X141316685Y-134567581D01*
X141342482Y-134494203D01*
X141358842Y-134408938D01*
X141364630Y-134309776D01*
X141356036Y-134188847D01*
X141331956Y-134087845D01*
X141294114Y-134003351D01*
X141243043Y-133932650D01*
X141191797Y-133884777D01*
X141133507Y-133847414D01*
X141067169Y-133820092D01*
X140991375Y-133803008D01*
X140904385Y-133797018D01*
X140829074Y-133803698D01*
X140760405Y-133823249D01*
X140697008Y-133855637D01*
X140640899Y-133899491D01*
X140594729Y-133953064D01*
X140557865Y-134017524D01*
X140690825Y-134078737D01*
X140728772Y-134024185D01*
X140778371Y-133984246D01*
X140837329Y-133959435D01*
X140904385Y-133950968D01*
X140971947Y-133957313D01*
X141029254Y-133975369D01*
X141078330Y-134004562D01*
X141120540Y-134045536D01*
X141152953Y-134094332D01*
X141177232Y-134153235D01*
X141192806Y-134224238D01*
X141198392Y-134309776D01*
X141192674Y-134393221D01*
X141176671Y-134462874D01*
X141151588Y-134521063D01*
X141117868Y-134569665D01*
X141074539Y-134609815D01*
X141023338Y-134638756D01*
X140962686Y-134656840D01*
X140890341Y-134663241D01*
X140810956Y-134655594D01*
X140741658Y-134633550D01*
X140677297Y-134599237D01*
X140615644Y-134554782D01*
X140528098Y-134678964D01*
X140603382Y-134734839D01*
X140691741Y-134777882D01*
X140787670Y-134805122D01*
X140890341Y-134815511D01*
G37*
G36*
X139948407Y-133805951D02*
G01*
X140034448Y-133831423D01*
X140108808Y-133872570D01*
X140173412Y-133930054D01*
X140223807Y-133999370D01*
X140261405Y-134083603D01*
X140285504Y-134185799D01*
X140294159Y-134309776D01*
X140286862Y-134416900D01*
X140266288Y-134507896D01*
X140233786Y-134585389D01*
X140187815Y-134655332D01*
X140132375Y-134712054D01*
X140066708Y-134756893D01*
X139993480Y-134788972D01*
X139912336Y-134808692D01*
X139821702Y-134815511D01*
X139751881Y-134812398D01*
X139671188Y-134802383D01*
X139585926Y-134780890D01*
X139471672Y-134734987D01*
X139529450Y-134602028D01*
X139616049Y-134634771D01*
X139690422Y-134652784D01*
X139804147Y-134664996D01*
X139880989Y-134658539D01*
X139951151Y-134639656D01*
X140013714Y-134606382D01*
X140064953Y-134557377D01*
X140090589Y-134517269D01*
X140110050Y-134467490D01*
X140122655Y-134406023D01*
X139455949Y-134406023D01*
X139440552Y-134335523D01*
X139434170Y-134264817D01*
X139434439Y-134257264D01*
X139587153Y-134257264D01*
X140129677Y-134257264D01*
X140121436Y-134177584D01*
X140097315Y-134105909D01*
X140072310Y-134062550D01*
X140040959Y-134025401D01*
X140002824Y-133993863D01*
X139959588Y-133970443D01*
X139910174Y-133956007D01*
X139853148Y-133950968D01*
X139793812Y-133956072D01*
X139743325Y-133970571D01*
X139700039Y-133993863D01*
X139662174Y-134025522D01*
X139632035Y-134062657D01*
X139609058Y-134105909D01*
X139589290Y-134177370D01*
X139587153Y-134257264D01*
X139434439Y-134257264D01*
X139436714Y-134193379D01*
X139448123Y-134122900D01*
X139467958Y-134057203D01*
X139496172Y-133995618D01*
X139533199Y-133939423D01*
X139578489Y-133891540D01*
X139632719Y-133851286D01*
X139693256Y-133821954D01*
X139764258Y-133803533D01*
X139847958Y-133797018D01*
X139948407Y-133805951D01*
G37*
D11*
X165359580Y-118833333D02*
X165407200Y-118785714D01*
X165407200Y-118785714D02*
X165454819Y-118642857D01*
X165454819Y-118642857D02*
X165454819Y-118547619D01*
X165454819Y-118547619D02*
X165407200Y-118404762D01*
X165407200Y-118404762D02*
X165311961Y-118309524D01*
X165311961Y-118309524D02*
X165216723Y-118261905D01*
X165216723Y-118261905D02*
X165026247Y-118214286D01*
X165026247Y-118214286D02*
X164883390Y-118214286D01*
X164883390Y-118214286D02*
X164692914Y-118261905D01*
X164692914Y-118261905D02*
X164597676Y-118309524D01*
X164597676Y-118309524D02*
X164502438Y-118404762D01*
X164502438Y-118404762D02*
X164454819Y-118547619D01*
X164454819Y-118547619D02*
X164454819Y-118642857D01*
X164454819Y-118642857D02*
X164502438Y-118785714D01*
X164502438Y-118785714D02*
X164550057Y-118833333D01*
X164550057Y-119214286D02*
X164502438Y-119261905D01*
X164502438Y-119261905D02*
X164454819Y-119357143D01*
X164454819Y-119357143D02*
X164454819Y-119595238D01*
X164454819Y-119595238D02*
X164502438Y-119690476D01*
X164502438Y-119690476D02*
X164550057Y-119738095D01*
X164550057Y-119738095D02*
X164645295Y-119785714D01*
X164645295Y-119785714D02*
X164740533Y-119785714D01*
X164740533Y-119785714D02*
X164883390Y-119738095D01*
X164883390Y-119738095D02*
X165454819Y-119166667D01*
X165454819Y-119166667D02*
X165454819Y-119785714D01*
%TO.C,C2*%
D12*
X163357000Y-120023500D02*
X165643000Y-120023500D01*
X163357000Y-124976500D02*
X163357000Y-120023500D01*
X163928500Y-122246000D02*
X165071500Y-122246000D01*
X163928500Y-122754000D02*
X165071500Y-122754000D01*
X164500000Y-122246000D02*
X164500000Y-121865000D01*
X164500000Y-122754000D02*
X164500000Y-123135000D01*
X165643000Y-120023500D02*
X165643000Y-124976500D01*
X165643000Y-124976500D02*
X163357000Y-124976500D01*
%TD*%
M02*
