%TF.GenerationSoftware,KiCad,Pcbnew,10.0.5*%
%TF.CreationDate,2026-08-12T19:48:20+09:00*%
%TF.ProjectId,N64Power,4e363450-6f77-4657-922e-6b696361645f,rev?*%
%TF.SameCoordinates,Original*%
%TF.FileFunction,Copper,L1,Top*%
%TF.FilePolarity,Positive*%
%FSLAX46Y46*%
G04 Gerber Fmt 4.6, Leading zero omitted, Abs format (unit mm)*
G04 Created by KiCad (PCBNEW 10.0.5) date 2026-08-12 19:48:20*
%MOMM*%
%LPD*%
G01*
G04 APERTURE LIST*
G04 Aperture macros list*
%AMRoundRect*
0 Rectangle with rounded corners*
0 $1 Rounding radius*
0 $2 $3 $4 $5 $6 $7 $8 $9 X,Y pos of 4 corners*
0 Add a 4 corners polygon primitive as box body*
4,1,4,$2,$3,$4,$5,$6,$7,$8,$9,$2,$3,0*
0 Add four circle primitives for the rounded corners*
1,1,$1+$1,$2,$3*
1,1,$1+$1,$4,$5*
1,1,$1+$1,$6,$7*
1,1,$1+$1,$8,$9*
0 Add four rect primitives between the rounded corners*
20,1,$1+$1,$2,$3,$4,$5,0*
20,1,$1+$1,$4,$5,$6,$7,0*
20,1,$1+$1,$6,$7,$8,$9,0*
20,1,$1+$1,$8,$9,$2,$3,0*%
G04 Aperture macros list end*
%TA.AperFunction,SMDPad,CuDef*%
%ADD10RoundRect,0.249999X-1.025001X-1.500001X1.025001X-1.500001X1.025001X1.500001X-1.025001X1.500001X0*%
%TD*%
%TA.AperFunction,SMDPad,CuDef*%
%ADD11RoundRect,0.250000X0.650000X-0.412500X0.650000X0.412500X-0.650000X0.412500X-0.650000X-0.412500X0*%
%TD*%
%TA.AperFunction,ComponentPad*%
%ADD12RoundRect,0.225000X-0.525000X-1.025000X0.525000X-1.025000X0.525000X1.025000X-0.525000X1.025000X0*%
%TD*%
%TA.AperFunction,ComponentPad*%
%ADD13RoundRect,0.250000X-1.050000X-1.050000X1.050000X-1.050000X1.050000X1.050000X-1.050000X1.050000X0*%
%TD*%
%TA.AperFunction,ComponentPad*%
%ADD14C,2.600000*%
%TD*%
%TA.AperFunction,SMDPad,CuDef*%
%ADD15RoundRect,0.250000X-1.025000X0.787500X-1.025000X-0.787500X1.025000X-0.787500X1.025000X0.787500X0*%
%TD*%
%TA.AperFunction,ComponentPad*%
%ADD16R,1.150000X1.150000*%
%TD*%
%TA.AperFunction,ComponentPad*%
%ADD17C,1.150000*%
%TD*%
%TA.AperFunction,ComponentPad*%
%ADD18R,1.700000X1.700000*%
%TD*%
%TA.AperFunction,ComponentPad*%
%ADD19O,1.700000X1.700000*%
%TD*%
%TA.AperFunction,ComponentPad*%
%ADD20R,1.800000X1.800000*%
%TD*%
%TA.AperFunction,ComponentPad*%
%ADD21C,1.800000*%
%TD*%
%TA.AperFunction,ViaPad*%
%ADD22C,0.600000*%
%TD*%
%TA.AperFunction,Conductor*%
%ADD23C,1.800000*%
%TD*%
%TA.AperFunction,Conductor*%
%ADD24C,2.000000*%
%TD*%
%TA.AperFunction,Conductor*%
%ADD25C,1.500000*%
%TD*%
G04 APERTURE END LIST*
D10*
%TO.P,C5,1*%
%TO.N,+3.3V*%
X195725000Y-131500000D03*
%TO.P,C5,2*%
%TO.N,GND*%
X201275000Y-131500000D03*
%TD*%
D11*
%TO.P,C4,1*%
%TO.N,GND*%
X190500000Y-134562500D03*
%TO.P,C4,2*%
%TO.N,+3.3V*%
X190500000Y-131437500D03*
%TD*%
D12*
%TO.P,J3,1,Pin_1*%
%TO.N,+12V*%
X190500000Y-127500000D03*
%TO.P,J3,2,Pin_2*%
%TO.N,+3.3V*%
X192500000Y-127500000D03*
%TO.P,J3,3,Pin_3*%
X194500000Y-127500000D03*
%TO.P,J3,4,Pin_4*%
%TO.N,GND*%
X196500000Y-127500000D03*
%TO.P,J3,5,Pin_5*%
X198500000Y-127500000D03*
%TO.P,J3,6,Pin_6*%
X200500000Y-127500000D03*
%TD*%
D13*
%TO.P,J1,1*%
%TO.N,Net-(F1-Pad1)*%
X108000000Y-114500000D03*
D14*
%TO.P,J1,2*%
%TO.N,V-L*%
X112800000Y-114500000D03*
%TD*%
D15*
%TO.P,C1,1*%
%TO.N,+12V*%
X186500000Y-127387500D03*
%TO.P,C1,2*%
%TO.N,GND*%
X186500000Y-133612500D03*
%TD*%
D16*
%TO.P,PS1,1,-VIN(GND)*%
%TO.N,GND*%
X171340000Y-112000000D03*
D17*
%TO.P,PS1,7,NC*%
%TO.N,unconnected-(PS1-NC-Pad7)*%
X171340000Y-127240000D03*
%TO.P,PS1,8,NC__1*%
%TO.N,unconnected-(PS1-NC__1-Pad8)*%
X171340000Y-129780000D03*
%TO.P,PS1,9,+VOUT*%
%TO.N,+3.3V*%
X181500000Y-129780000D03*
%TO.P,PS1,10,-VOUT*%
%TO.N,GND*%
X181500000Y-127240000D03*
%TO.P,PS1,16,+VIN(VCC)*%
%TO.N,+12V*%
X181500000Y-112000000D03*
%TD*%
D18*
%TO.P,F1,1*%
%TO.N,Net-(F1-Pad1)*%
X110500000Y-110500000D03*
D19*
%TO.P,F1,2*%
%TO.N,Net-(PS2-AC_(L))*%
X113040000Y-110500000D03*
%TD*%
D20*
%TO.P,PS2,1,AC_(L)*%
%TO.N,Net-(PS2-AC_(L))*%
X119000000Y-112500000D03*
D21*
%TO.P,PS2,2,AC_(N)*%
%TO.N,V-L*%
X119000000Y-132800000D03*
%TO.P,PS2,3,+VOUT*%
%TO.N,+12V*%
X164700000Y-112500000D03*
%TO.P,PS2,4,-VOUT*%
%TO.N,GND*%
X164700000Y-134000000D03*
%TD*%
D22*
%TO.N,GND*%
X203599000Y-131000000D03*
X203500000Y-127500000D03*
X203599000Y-132500000D03*
X203599000Y-135000000D03*
X203599000Y-129500000D03*
X203599000Y-134000000D03*
%TO.N,+12V*%
X181500000Y-117500000D03*
X181500000Y-119500000D03*
X181500000Y-114500000D03*
X181500000Y-118500000D03*
X181500000Y-113500000D03*
X181500000Y-115500000D03*
X181500000Y-116500000D03*
%TO.N,+3.3V*%
X192500000Y-129000000D03*
X192500000Y-130000000D03*
X192500000Y-131000000D03*
%TD*%
%TO.N,+12V*%
D23*
X181500000Y-115500000D02*
X181500000Y-115000000D01*
X181500000Y-117000000D02*
X181500000Y-116500000D01*
X181500000Y-119500000D02*
X181500000Y-119000000D01*
X181500000Y-116500000D02*
X181500000Y-116000000D01*
X181500000Y-116000000D02*
X181500000Y-115500000D01*
X181500000Y-119000000D02*
X181500000Y-118500000D01*
X181500000Y-114000000D02*
X181500000Y-113500000D01*
X181500000Y-115000000D02*
X181500000Y-114500000D01*
X181500000Y-118500000D02*
X181500000Y-118000000D01*
X181500000Y-113500000D02*
X181500000Y-113000000D01*
X181500000Y-118000000D02*
X181500000Y-117500000D01*
X186500000Y-127387500D02*
X190350000Y-127387500D01*
X190350000Y-127387500D02*
X190350000Y-127500000D01*
X186500000Y-127387500D02*
X184906187Y-127387500D01*
X181500000Y-123981313D02*
X181500000Y-119500000D01*
X181500000Y-114500000D02*
X181500000Y-114000000D01*
X181500000Y-113000000D02*
X181500000Y-112000000D01*
X181500000Y-117500000D02*
X181500000Y-117000000D01*
X184906187Y-127387500D02*
X181500000Y-123981313D01*
%TO.N,Net-(F1-Pad1)*%
D24*
X108000000Y-113000000D02*
X110500000Y-110500000D01*
X108000000Y-114500000D02*
X108000000Y-113000000D01*
%TO.N,+3.3V*%
D23*
X195725000Y-131500000D02*
X192725000Y-131500000D01*
D25*
X192500000Y-127500000D02*
X192500000Y-131275000D01*
D23*
X186680372Y-129780000D02*
X188400372Y-131500000D01*
D25*
X192500000Y-131275000D02*
X192725000Y-131500000D01*
X192500000Y-127500000D02*
X192401000Y-127599000D01*
D23*
X188400372Y-131500000D02*
X192725000Y-131500000D01*
X181500000Y-129780000D02*
X186680372Y-129780000D01*
%TO.N,Net-(PS2-AC_(L))*%
D24*
X117000000Y-110500000D02*
X119000000Y-112500000D01*
X113040000Y-110500000D02*
X117000000Y-110500000D01*
%TO.N,V-L*%
X112800000Y-114500000D02*
X115000000Y-114500000D01*
X119000000Y-118500000D02*
X119000000Y-132800000D01*
X115000000Y-114500000D02*
X119000000Y-118500000D01*
%TD*%
%TA.AperFunction,Conductor*%
%TO.N,GND*%
G36*
X183308511Y-109020691D02*
G01*
X183401935Y-109078536D01*
X183468154Y-109166224D01*
X183498225Y-109271912D01*
X183499500Y-109299500D01*
X183499500Y-123419778D01*
X183479309Y-123527789D01*
X183421464Y-123621213D01*
X183333776Y-123687432D01*
X183228088Y-123717503D01*
X183118675Y-123707364D01*
X183020312Y-123658385D01*
X182989075Y-123631203D01*
X182888075Y-123530203D01*
X182825977Y-123439550D01*
X182800819Y-123332587D01*
X182800500Y-123318778D01*
X182800500Y-111897648D01*
X182768477Y-111695466D01*
X182705220Y-111500781D01*
X182612287Y-111318390D01*
X182611725Y-111317617D01*
X182513855Y-111182909D01*
X182491966Y-111152781D01*
X182347219Y-111008034D01*
X182232932Y-110925000D01*
X182181612Y-110887714D01*
X182181607Y-110887711D01*
X181999218Y-110794779D01*
X181999214Y-110794778D01*
X181804535Y-110731523D01*
X181602353Y-110699500D01*
X181602352Y-110699500D01*
X181397648Y-110699500D01*
X181397646Y-110699500D01*
X181195464Y-110731523D01*
X181000785Y-110794778D01*
X181000781Y-110794779D01*
X180818392Y-110887711D01*
X180818387Y-110887714D01*
X180652782Y-111008033D01*
X180652775Y-111008039D01*
X180508039Y-111152775D01*
X180508033Y-111152782D01*
X180387714Y-111318387D01*
X180387711Y-111318392D01*
X180294779Y-111500781D01*
X180294778Y-111500785D01*
X180231523Y-111695464D01*
X180199500Y-111897646D01*
X180199500Y-124083666D01*
X180231523Y-124285850D01*
X180238335Y-124306814D01*
X180263151Y-124383189D01*
X180294780Y-124480532D01*
X180294781Y-124480533D01*
X180338273Y-124565892D01*
X180338273Y-124565893D01*
X180387708Y-124662916D01*
X180387711Y-124662920D01*
X180387713Y-124662924D01*
X180508034Y-124828532D01*
X181373248Y-125693746D01*
X181435346Y-125784399D01*
X181460504Y-125891362D01*
X181445323Y-126000191D01*
X181391854Y-126096186D01*
X181307318Y-126166384D01*
X181254220Y-126189537D01*
X181087345Y-126243758D01*
X181087336Y-126243762D01*
X180981799Y-126297534D01*
X180981799Y-126297535D01*
X181549264Y-126865000D01*
X181450630Y-126865000D01*
X181355255Y-126890556D01*
X181269745Y-126939925D01*
X181199925Y-127009745D01*
X181150556Y-127095255D01*
X181125000Y-127190630D01*
X181125000Y-127289370D01*
X181150556Y-127384745D01*
X181199925Y-127470255D01*
X181269745Y-127540075D01*
X181355255Y-127589444D01*
X181450630Y-127615000D01*
X181549370Y-127615000D01*
X181644745Y-127589444D01*
X181730255Y-127540075D01*
X181800075Y-127470255D01*
X181849444Y-127384745D01*
X181875000Y-127289370D01*
X181875000Y-127190736D01*
X182442463Y-127758199D01*
X182496240Y-127652656D01*
X182550463Y-127485779D01*
X182603044Y-127389294D01*
X182686928Y-127318318D01*
X182790787Y-127282437D01*
X182900594Y-127286498D01*
X183001519Y-127329952D01*
X183046254Y-127366751D01*
X183648578Y-127969075D01*
X183710676Y-128059728D01*
X183735834Y-128166691D01*
X183720653Y-128275520D01*
X183667184Y-128371515D01*
X183582648Y-128441713D01*
X183478462Y-128476633D01*
X183437153Y-128479500D01*
X182321238Y-128479500D01*
X182213227Y-128459309D01*
X182119803Y-128401464D01*
X182053584Y-128313776D01*
X182023513Y-128208088D01*
X182024149Y-128188413D01*
X181500000Y-127664264D01*
X180981799Y-128182463D01*
X180996748Y-128276849D01*
X180997462Y-128278026D01*
X181016654Y-128386219D01*
X180995467Y-128494039D01*
X180936761Y-128586925D01*
X180853411Y-128649868D01*
X180818397Y-128667708D01*
X180818387Y-128667714D01*
X180652782Y-128788033D01*
X180652775Y-128788039D01*
X180508039Y-128932775D01*
X180508033Y-128932782D01*
X180387714Y-129098387D01*
X180387711Y-129098392D01*
X180294779Y-129280781D01*
X180294778Y-129280785D01*
X180231523Y-129475464D01*
X180199500Y-129677646D01*
X180199500Y-129882353D01*
X180231523Y-130084535D01*
X180294778Y-130279214D01*
X180294779Y-130279218D01*
X180357260Y-130401843D01*
X180387713Y-130461610D01*
X180508034Y-130627219D01*
X180652781Y-130771966D01*
X180818390Y-130892287D01*
X181000781Y-130985220D01*
X181195466Y-131048477D01*
X181397648Y-131080500D01*
X186017837Y-131080500D01*
X186125848Y-131100691D01*
X186219272Y-131158536D01*
X186229262Y-131168075D01*
X186756668Y-131695481D01*
X186818766Y-131786134D01*
X186843924Y-131893097D01*
X186828743Y-132001926D01*
X186800000Y-132053529D01*
X186800000Y-133312500D01*
X188274999Y-133312500D01*
X188274999Y-133099500D01*
X188295190Y-132991489D01*
X188353035Y-132898065D01*
X188440723Y-132831846D01*
X188546411Y-132801775D01*
X188573999Y-132800500D01*
X192622648Y-132800500D01*
X193752237Y-132800500D01*
X193860248Y-132820691D01*
X193953672Y-132878536D01*
X194019891Y-132966224D01*
X194049962Y-133071912D01*
X194050316Y-133076055D01*
X194052401Y-133102565D01*
X194052402Y-133102575D01*
X194093329Y-133243441D01*
X194098256Y-133260399D01*
X194181919Y-133401865D01*
X194298135Y-133518081D01*
X194439601Y-133601744D01*
X194597430Y-133647598D01*
X194597434Y-133647599D01*
X194634279Y-133650498D01*
X194634305Y-133650500D01*
X196815694Y-133650499D01*
X196815695Y-133650499D01*
X196821840Y-133650015D01*
X196852570Y-133647598D01*
X196852572Y-133647597D01*
X196852575Y-133647597D01*
X196921683Y-133627518D01*
X197010399Y-133601744D01*
X197151865Y-133518081D01*
X197268081Y-133401865D01*
X197351744Y-133260399D01*
X197397598Y-133102570D01*
X197397598Y-133102567D01*
X197397599Y-133102565D01*
X197400498Y-133065720D01*
X197400500Y-133065695D01*
X197400500Y-133049981D01*
X199500001Y-133049981D01*
X199510493Y-133152695D01*
X199510494Y-133152696D01*
X199565642Y-133319123D01*
X199657683Y-133468343D01*
X199657684Y-133468345D01*
X199781654Y-133592315D01*
X199781656Y-133592316D01*
X199930877Y-133684358D01*
X200097306Y-133739506D01*
X200200025Y-133749999D01*
X200975000Y-133749999D01*
X201575000Y-133749999D01*
X202349982Y-133749999D01*
X202452695Y-133739506D01*
X202452696Y-133739505D01*
X202619123Y-133684357D01*
X202768343Y-133592316D01*
X202768345Y-133592315D01*
X202892315Y-133468345D01*
X202892316Y-133468343D01*
X202984358Y-133319123D01*
X202984358Y-133319122D01*
X203039506Y-133152693D01*
X203050000Y-133049974D01*
X203050000Y-131800000D01*
X201575000Y-131800000D01*
X201575000Y-133749999D01*
X200975000Y-133749999D01*
X200975000Y-131800000D01*
X199500001Y-131800000D01*
X199500001Y-133049981D01*
X197400500Y-133049981D01*
X197400499Y-131200000D01*
X197400499Y-129934304D01*
X197399532Y-129922014D01*
X197397598Y-129897430D01*
X197397597Y-129897427D01*
X197397597Y-129897424D01*
X197351745Y-129739604D01*
X197351744Y-129739603D01*
X197351744Y-129739601D01*
X197271950Y-129604678D01*
X197234349Y-129501434D01*
X197236582Y-129391574D01*
X197278351Y-129289940D01*
X197354013Y-129210258D01*
X197453351Y-129163288D01*
X197562948Y-129155376D01*
X197655685Y-129181496D01*
X197666516Y-129186547D01*
X197827396Y-129239856D01*
X197926689Y-129249999D01*
X198200000Y-129249999D01*
X198200000Y-127904144D01*
X198307007Y-127965925D01*
X198434174Y-128000000D01*
X198565826Y-128000000D01*
X198692993Y-127965925D01*
X198800000Y-127904144D01*
X198800000Y-129249999D01*
X199073318Y-129249999D01*
X199172605Y-129239856D01*
X199172609Y-129239855D01*
X199228715Y-129221263D01*
X199337595Y-129206453D01*
X199444472Y-129231975D01*
X199534912Y-129294382D01*
X199596702Y-129385246D01*
X199621494Y-129492295D01*
X199605942Y-129601071D01*
X199577255Y-129662049D01*
X199565641Y-129680878D01*
X199510493Y-129847306D01*
X199500000Y-129950025D01*
X199500000Y-131200000D01*
X203049999Y-131200000D01*
X203049999Y-129950018D01*
X203039506Y-129847304D01*
X203039505Y-129847303D01*
X202984357Y-129680876D01*
X202892316Y-129531656D01*
X202892315Y-129531654D01*
X202768345Y-129407684D01*
X202768343Y-129407683D01*
X202619122Y-129315641D01*
X202452693Y-129260493D01*
X202349975Y-129250000D01*
X201961658Y-129250000D01*
X201853647Y-129229809D01*
X201760223Y-129171964D01*
X201694004Y-129084276D01*
X201663933Y-128978588D01*
X201674072Y-128869175D01*
X201681197Y-128850058D01*
X201681069Y-128850016D01*
X201739856Y-128672603D01*
X201750000Y-128573310D01*
X201750000Y-127800000D01*
X200904144Y-127800000D01*
X200965925Y-127692993D01*
X201000000Y-127565826D01*
X201000000Y-127434174D01*
X200965925Y-127307007D01*
X200904144Y-127200000D01*
X201749999Y-127200000D01*
X201749999Y-126426682D01*
X201739856Y-126327394D01*
X201739855Y-126327393D01*
X201686546Y-126166515D01*
X201597572Y-126022268D01*
X201597571Y-126022266D01*
X201477733Y-125902428D01*
X201477731Y-125902427D01*
X201333483Y-125813452D01*
X201172603Y-125760143D01*
X201073311Y-125750000D01*
X200800000Y-125750000D01*
X200800000Y-127095855D01*
X200692993Y-127034075D01*
X200565826Y-127000000D01*
X200434174Y-127000000D01*
X200307007Y-127034075D01*
X200200000Y-127095855D01*
X200200000Y-125750000D01*
X199926689Y-125750000D01*
X199827395Y-125760143D01*
X199827393Y-125760144D01*
X199666514Y-125813453D01*
X199656963Y-125819345D01*
X199554433Y-125858862D01*
X199444550Y-125858671D01*
X199343037Y-125819345D01*
X199333484Y-125813453D01*
X199172603Y-125760143D01*
X199073311Y-125750000D01*
X198800000Y-125750000D01*
X198800000Y-127095855D01*
X198692993Y-127034075D01*
X198565826Y-127000000D01*
X198434174Y-127000000D01*
X198307007Y-127034075D01*
X198200000Y-127095855D01*
X198200000Y-125750000D01*
X197926689Y-125750000D01*
X197827395Y-125760143D01*
X197827393Y-125760144D01*
X197666514Y-125813453D01*
X197656963Y-125819345D01*
X197554433Y-125858862D01*
X197444550Y-125858671D01*
X197343037Y-125819345D01*
X197333484Y-125813453D01*
X197172603Y-125760143D01*
X197073311Y-125750000D01*
X196800000Y-125750000D01*
X196800000Y-127077735D01*
X196921450Y-127200000D01*
X198095856Y-127200000D01*
X198034075Y-127307007D01*
X198000000Y-127434174D01*
X198000000Y-127565826D01*
X198034075Y-127692993D01*
X198095856Y-127800000D01*
X196904144Y-127800000D01*
X196965925Y-127692993D01*
X197000000Y-127565826D01*
X197000000Y-127434174D01*
X196965925Y-127307007D01*
X196900099Y-127192993D01*
X196807007Y-127099901D01*
X196692993Y-127034075D01*
X196565826Y-127000000D01*
X196434174Y-127000000D01*
X196307007Y-127034075D01*
X196200000Y-127095855D01*
X196200000Y-125750000D01*
X195926689Y-125750000D01*
X195827395Y-125760143D01*
X195827393Y-125760144D01*
X195666513Y-125813453D01*
X195558901Y-125879830D01*
X195456371Y-125919349D01*
X195346489Y-125919160D01*
X195283195Y-125899758D01*
X195275394Y-125896382D01*
X195123626Y-125852290D01*
X195123621Y-125852289D01*
X195088187Y-125849501D01*
X195088169Y-125849500D01*
X195088163Y-125849500D01*
X195088150Y-125849500D01*
X193911838Y-125849500D01*
X193876377Y-125852290D01*
X193876370Y-125852291D01*
X193724610Y-125896381D01*
X193724604Y-125896383D01*
X193652204Y-125939202D01*
X193548956Y-125976806D01*
X193439097Y-125974573D01*
X193347796Y-125939202D01*
X193275395Y-125896383D01*
X193275387Y-125896380D01*
X193123626Y-125852290D01*
X193123621Y-125852289D01*
X193088187Y-125849501D01*
X193088169Y-125849500D01*
X193088163Y-125849500D01*
X193088150Y-125849500D01*
X191911838Y-125849500D01*
X191876377Y-125852290D01*
X191876370Y-125852291D01*
X191724610Y-125896381D01*
X191724604Y-125896383D01*
X191652204Y-125939202D01*
X191548956Y-125976806D01*
X191439097Y-125974573D01*
X191347796Y-125939202D01*
X191275395Y-125896383D01*
X191275387Y-125896380D01*
X191123626Y-125852290D01*
X191123621Y-125852289D01*
X191088187Y-125849501D01*
X191088169Y-125849500D01*
X191088163Y-125849500D01*
X191088150Y-125849500D01*
X189911838Y-125849500D01*
X189876377Y-125852290D01*
X189876370Y-125852291D01*
X189724610Y-125896381D01*
X189724605Y-125896383D01*
X189588581Y-125976828D01*
X189588580Y-125976829D01*
X189565985Y-125999425D01*
X189475332Y-126061523D01*
X189368369Y-126086681D01*
X189354560Y-126087000D01*
X188017253Y-126087000D01*
X187909242Y-126066809D01*
X187865050Y-126045362D01*
X187785398Y-125998256D01*
X187627566Y-125952401D01*
X187627567Y-125952401D01*
X187590719Y-125949501D01*
X187590700Y-125949500D01*
X187590694Y-125949500D01*
X185431221Y-125949500D01*
X185323210Y-125929309D01*
X185229786Y-125871464D01*
X185219796Y-125861925D01*
X184868796Y-125510925D01*
X184806698Y-125420272D01*
X184781540Y-125313309D01*
X184796721Y-125204480D01*
X184850190Y-125108485D01*
X184934726Y-125038287D01*
X185038912Y-125003367D01*
X185080221Y-125000500D01*
X204200500Y-125000500D01*
X204308511Y-125020691D01*
X204401935Y-125078536D01*
X204468154Y-125166224D01*
X204498225Y-125271912D01*
X204499500Y-125299500D01*
X204499500Y-136200500D01*
X204479309Y-136308511D01*
X204421464Y-136401935D01*
X204333776Y-136468154D01*
X204228088Y-136498225D01*
X204200500Y-136499500D01*
X162299000Y-136499500D01*
X162190989Y-136479309D01*
X162097565Y-136421464D01*
X162031346Y-136333776D01*
X162001275Y-136228088D01*
X162000000Y-136200500D01*
X162000000Y-133889816D01*
X163300000Y-133889816D01*
X163300000Y-134110183D01*
X163334473Y-134327836D01*
X163402565Y-134537405D01*
X163402568Y-134537411D01*
X163502611Y-134733757D01*
X163519177Y-134756557D01*
X164120444Y-134155289D01*
X164140889Y-134231591D01*
X164219881Y-134368408D01*
X164331592Y-134480119D01*
X164468409Y-134559111D01*
X164544708Y-134579555D01*
X163943441Y-135180821D01*
X163966241Y-135197387D01*
X164162587Y-135297431D01*
X164162594Y-135297434D01*
X164372163Y-135365526D01*
X164589816Y-135399999D01*
X164589819Y-135400000D01*
X164810181Y-135400000D01*
X164810183Y-135399999D01*
X165027836Y-135365526D01*
X165237405Y-135297434D01*
X165237411Y-135297431D01*
X165433760Y-135197386D01*
X165456557Y-135180821D01*
X164855291Y-134579555D01*
X164931591Y-134559111D01*
X165068408Y-134480119D01*
X165180119Y-134368408D01*
X165259111Y-134231591D01*
X165279555Y-134155291D01*
X165880821Y-134756557D01*
X165897386Y-134733760D01*
X165997431Y-134537411D01*
X165997434Y-134537405D01*
X166025839Y-134449981D01*
X184725001Y-134449981D01*
X184735493Y-134552692D01*
X184790641Y-134719120D01*
X184882683Y-134868344D01*
X185006655Y-134992316D01*
X185155883Y-135084360D01*
X185155882Y-135084360D01*
X185322302Y-135139506D01*
X185425025Y-135149999D01*
X186200000Y-135149999D01*
X186800000Y-135149999D01*
X187574982Y-135149999D01*
X187677692Y-135139506D01*
X187844120Y-135084358D01*
X187940386Y-135024981D01*
X189100001Y-135024981D01*
X189110493Y-135127692D01*
X189165641Y-135294120D01*
X189257683Y-135443344D01*
X189381655Y-135567316D01*
X189530883Y-135659360D01*
X189530882Y-135659360D01*
X189697302Y-135714506D01*
X189800025Y-135724999D01*
X190200000Y-135724999D01*
X190800000Y-135724999D01*
X191199982Y-135724999D01*
X191302692Y-135714506D01*
X191469120Y-135659358D01*
X191618344Y-135567316D01*
X191742316Y-135443344D01*
X191834360Y-135294117D01*
X191889506Y-135127697D01*
X191900000Y-135024974D01*
X191900000Y-134862500D01*
X190800000Y-134862500D01*
X190800000Y-135724999D01*
X190200000Y-135724999D01*
X190200000Y-134862500D01*
X189100001Y-134862500D01*
X189100001Y-135024981D01*
X187940386Y-135024981D01*
X187993344Y-134992316D01*
X188117316Y-134868344D01*
X188209358Y-134719119D01*
X188234051Y-134644602D01*
X188234051Y-134644600D01*
X188264506Y-134552695D01*
X188275000Y-134449974D01*
X188275000Y-134100025D01*
X189100000Y-134100025D01*
X189100000Y-134262500D01*
X190200000Y-134262500D01*
X190800000Y-134262500D01*
X191899999Y-134262500D01*
X191899999Y-134100018D01*
X191889506Y-133997307D01*
X191834358Y-133830879D01*
X191742316Y-133681655D01*
X191618344Y-133557683D01*
X191469116Y-133465639D01*
X191469117Y-133465639D01*
X191302697Y-133410493D01*
X191199975Y-133400000D01*
X190800000Y-133400000D01*
X190800000Y-134262500D01*
X190200000Y-134262500D01*
X190200000Y-133400000D01*
X189800025Y-133400000D01*
X189697307Y-133410493D01*
X189530879Y-133465641D01*
X189381655Y-133557683D01*
X189257683Y-133681655D01*
X189165639Y-133830882D01*
X189110493Y-133997302D01*
X189100000Y-134100025D01*
X188275000Y-134100025D01*
X188275000Y-133912500D01*
X186800000Y-133912500D01*
X186800000Y-135149999D01*
X186200000Y-135149999D01*
X186200000Y-133912500D01*
X184725001Y-133912500D01*
X184725001Y-134449981D01*
X166025839Y-134449981D01*
X166065526Y-134327836D01*
X166099999Y-134110183D01*
X166100000Y-134110181D01*
X166100000Y-133889818D01*
X166099999Y-133889814D01*
X166091385Y-133835424D01*
X166065526Y-133672163D01*
X165997434Y-133462594D01*
X165997431Y-133462587D01*
X165897387Y-133266241D01*
X165880821Y-133243441D01*
X165279555Y-133844707D01*
X165259111Y-133768409D01*
X165180119Y-133631592D01*
X165068408Y-133519881D01*
X164931591Y-133440889D01*
X164855289Y-133420444D01*
X165456557Y-132819177D01*
X165433757Y-132802611D01*
X165379616Y-132775025D01*
X184725000Y-132775025D01*
X184725000Y-133312500D01*
X186200000Y-133312500D01*
X186200000Y-132075000D01*
X185425018Y-132075000D01*
X185322307Y-132085493D01*
X185155879Y-132140641D01*
X185006655Y-132232683D01*
X184882683Y-132356655D01*
X184790639Y-132505882D01*
X184735493Y-132672302D01*
X184725000Y-132775025D01*
X165379616Y-132775025D01*
X165237411Y-132702568D01*
X165237405Y-132702565D01*
X165027836Y-132634473D01*
X164810183Y-132600000D01*
X164589816Y-132600000D01*
X164372163Y-132634473D01*
X164162594Y-132702565D01*
X164162587Y-132702568D01*
X163966240Y-132802612D01*
X163943441Y-132819176D01*
X163943441Y-132819177D01*
X164544708Y-133420444D01*
X164468409Y-133440889D01*
X164331592Y-133519881D01*
X164219881Y-133631592D01*
X164140889Y-133768409D01*
X164120444Y-133844708D01*
X163519177Y-133243441D01*
X163519176Y-133243441D01*
X163502612Y-133266240D01*
X163402568Y-133462587D01*
X163402565Y-133462594D01*
X163334473Y-133672163D01*
X163300000Y-133889816D01*
X162000000Y-133889816D01*
X162000000Y-129683922D01*
X170364500Y-129683922D01*
X170364500Y-129876077D01*
X170401988Y-130064544D01*
X170475522Y-130242072D01*
X170475523Y-130242074D01*
X170500343Y-130279219D01*
X170582280Y-130401845D01*
X170718155Y-130537720D01*
X170824669Y-130608891D01*
X170877925Y-130644476D01*
X170877927Y-130644477D01*
X171055457Y-130718012D01*
X171243922Y-130755500D01*
X171243927Y-130755500D01*
X171436073Y-130755500D01*
X171436078Y-130755500D01*
X171624543Y-130718012D01*
X171802073Y-130644477D01*
X171961845Y-130537720D01*
X172097720Y-130401845D01*
X172204477Y-130242073D01*
X172278012Y-130064543D01*
X172315500Y-129876078D01*
X172315500Y-129683922D01*
X172278012Y-129495457D01*
X172204477Y-129317927D01*
X172203338Y-129316223D01*
X172152311Y-129239856D01*
X172097720Y-129158155D01*
X171961845Y-129022280D01*
X171827903Y-128932782D01*
X171802074Y-128915523D01*
X171802072Y-128915522D01*
X171624543Y-128841988D01*
X171624544Y-128841988D01*
X171583486Y-128833821D01*
X171436078Y-128804500D01*
X171243922Y-128804500D01*
X171138348Y-128825500D01*
X171055454Y-128841988D01*
X170877927Y-128915522D01*
X170877925Y-128915523D01*
X170718159Y-129022277D01*
X170718156Y-129022279D01*
X170582279Y-129158156D01*
X170582277Y-129158159D01*
X170475523Y-129317925D01*
X170475522Y-129317927D01*
X170401988Y-129495455D01*
X170364500Y-129683922D01*
X162000000Y-129683922D01*
X162000000Y-127143922D01*
X170364500Y-127143922D01*
X170364500Y-127336078D01*
X170375085Y-127389294D01*
X170401988Y-127524544D01*
X170475522Y-127702072D01*
X170475523Y-127702074D01*
X170513025Y-127758199D01*
X170582280Y-127861845D01*
X170718155Y-127997720D01*
X170810956Y-128059728D01*
X170877925Y-128104476D01*
X170877927Y-128104477D01*
X171055454Y-128178011D01*
X171055455Y-128178011D01*
X171055457Y-128178012D01*
X171243922Y-128215500D01*
X171436078Y-128215500D01*
X171624543Y-128178012D01*
X171802073Y-128104477D01*
X171961845Y-127997720D01*
X172097720Y-127861845D01*
X172204477Y-127702073D01*
X172278012Y-127524543D01*
X172315500Y-127336078D01*
X172315500Y-127155392D01*
X180425000Y-127155392D01*
X180425000Y-127324607D01*
X180451470Y-127491729D01*
X180503759Y-127652657D01*
X180503760Y-127652660D01*
X180557534Y-127758199D01*
X180557535Y-127758200D01*
X181075735Y-127239999D01*
X180557535Y-126721799D01*
X180557534Y-126721799D01*
X180503762Y-126827336D01*
X180503758Y-126827345D01*
X180451470Y-126988270D01*
X180425000Y-127155392D01*
X172315500Y-127155392D01*
X172315500Y-127143922D01*
X172278012Y-126955457D01*
X172204477Y-126777927D01*
X172097720Y-126618155D01*
X171961845Y-126482280D01*
X171907864Y-126446210D01*
X171802074Y-126375523D01*
X171802072Y-126375522D01*
X171624543Y-126301988D01*
X171624544Y-126301988D01*
X171530310Y-126283244D01*
X171436078Y-126264500D01*
X171243922Y-126264500D01*
X171055455Y-126301988D01*
X170877927Y-126375522D01*
X170877925Y-126375523D01*
X170718159Y-126482277D01*
X170718156Y-126482279D01*
X170582279Y-126618156D01*
X170582277Y-126618159D01*
X170475523Y-126777925D01*
X170475522Y-126777927D01*
X170401988Y-126955455D01*
X170401988Y-126955457D01*
X170364500Y-127143922D01*
X162000000Y-127143922D01*
X162000000Y-112397646D01*
X163399500Y-112397646D01*
X163399500Y-112602353D01*
X163431523Y-112804535D01*
X163494778Y-112999214D01*
X163494779Y-112999218D01*
X163533392Y-113075000D01*
X163587713Y-113181610D01*
X163708034Y-113347219D01*
X163852781Y-113491966D01*
X164018390Y-113612287D01*
X164200781Y-113705220D01*
X164395466Y-113768477D01*
X164597648Y-113800500D01*
X164597649Y-113800500D01*
X164802351Y-113800500D01*
X164802352Y-113800500D01*
X165004534Y-113768477D01*
X165199219Y-113705220D01*
X165381610Y-113612287D01*
X165547219Y-113491966D01*
X165691966Y-113347219D01*
X165812287Y-113181610D01*
X165905220Y-112999219D01*
X165968477Y-112804534D01*
X165997257Y-112622828D01*
X170265000Y-112622828D01*
X170271403Y-112682379D01*
X170271403Y-112682382D01*
X170321647Y-112817090D01*
X170407808Y-112932186D01*
X170407813Y-112932191D01*
X170522909Y-113018352D01*
X170657618Y-113068596D01*
X170717171Y-113074999D01*
X170717177Y-113075000D01*
X171040000Y-113075000D01*
X171640000Y-113075000D01*
X171962823Y-113075000D01*
X171962828Y-113074999D01*
X172022379Y-113068596D01*
X172022382Y-113068596D01*
X172157090Y-113018352D01*
X172272186Y-112932191D01*
X172272191Y-112932186D01*
X172358352Y-112817090D01*
X172408596Y-112682382D01*
X172408596Y-112682379D01*
X172414999Y-112622828D01*
X172415000Y-112622822D01*
X172415000Y-112300000D01*
X171640000Y-112300000D01*
X171640000Y-113075000D01*
X171040000Y-113075000D01*
X171040000Y-112300000D01*
X170265000Y-112300000D01*
X170265000Y-112622828D01*
X165997257Y-112622828D01*
X166000500Y-112602352D01*
X166000500Y-112397648D01*
X165968477Y-112195466D01*
X165905220Y-112000781D01*
X165879667Y-111950630D01*
X170965000Y-111950630D01*
X170965000Y-112049370D01*
X170990556Y-112144745D01*
X171039925Y-112230255D01*
X171109745Y-112300075D01*
X171195255Y-112349444D01*
X171290630Y-112375000D01*
X171389370Y-112375000D01*
X171484745Y-112349444D01*
X171570255Y-112300075D01*
X171640075Y-112230255D01*
X171689444Y-112144745D01*
X171715000Y-112049370D01*
X171715000Y-111950630D01*
X171689444Y-111855255D01*
X171640075Y-111769745D01*
X171570330Y-111700000D01*
X171640000Y-111700000D01*
X172415000Y-111700000D01*
X172415000Y-111377177D01*
X172414999Y-111377171D01*
X172408596Y-111317620D01*
X172408596Y-111317617D01*
X172358352Y-111182909D01*
X172272191Y-111067813D01*
X172272186Y-111067808D01*
X172157090Y-110981647D01*
X172022381Y-110931403D01*
X171962828Y-110925000D01*
X171640000Y-110925000D01*
X171640000Y-111700000D01*
X171570330Y-111700000D01*
X171570255Y-111699925D01*
X171484745Y-111650556D01*
X171389370Y-111625000D01*
X171290630Y-111625000D01*
X171195255Y-111650556D01*
X171109745Y-111699925D01*
X171039925Y-111769745D01*
X170990556Y-111855255D01*
X170965000Y-111950630D01*
X165879667Y-111950630D01*
X165812287Y-111818390D01*
X165691966Y-111652781D01*
X165547219Y-111508034D01*
X165464414Y-111447873D01*
X165381612Y-111387714D01*
X165381607Y-111387711D01*
X165360921Y-111377171D01*
X170265000Y-111377171D01*
X170265000Y-111700000D01*
X171040000Y-111700000D01*
X171040000Y-110925000D01*
X170717171Y-110925000D01*
X170657620Y-110931403D01*
X170657617Y-110931403D01*
X170522909Y-110981647D01*
X170407813Y-111067808D01*
X170407808Y-111067813D01*
X170321647Y-111182909D01*
X170271403Y-111317617D01*
X170271403Y-111317620D01*
X170265000Y-111377171D01*
X165360921Y-111377171D01*
X165199218Y-111294779D01*
X165199214Y-111294778D01*
X165004535Y-111231523D01*
X164802353Y-111199500D01*
X164802352Y-111199500D01*
X164597648Y-111199500D01*
X164597646Y-111199500D01*
X164395464Y-111231523D01*
X164200785Y-111294778D01*
X164200781Y-111294779D01*
X164018392Y-111387711D01*
X164018387Y-111387714D01*
X163852782Y-111508033D01*
X163852775Y-111508039D01*
X163708039Y-111652775D01*
X163708033Y-111652782D01*
X163587714Y-111818387D01*
X163587711Y-111818392D01*
X163494779Y-112000781D01*
X163494778Y-112000785D01*
X163431523Y-112195464D01*
X163399500Y-112397646D01*
X162000000Y-112397646D01*
X162000000Y-109299500D01*
X162020191Y-109191489D01*
X162078036Y-109098065D01*
X162165724Y-109031846D01*
X162271412Y-109001775D01*
X162299000Y-109000500D01*
X182934108Y-109000500D01*
X183200500Y-109000500D01*
X183308511Y-109020691D01*
G37*
%TD.AperFunction*%
%TA.AperFunction,Conductor*%
G36*
X200034075Y-127307007D02*
G01*
X200000000Y-127434174D01*
X200000000Y-127565826D01*
X200034075Y-127692993D01*
X200095856Y-127800000D01*
X198904144Y-127800000D01*
X198965925Y-127692993D01*
X199000000Y-127565826D01*
X199000000Y-127434174D01*
X198965925Y-127307007D01*
X198904144Y-127200000D01*
X200095856Y-127200000D01*
X200034075Y-127307007D01*
G37*
%TD.AperFunction*%
%TD*%
M02*
